<svg width="24" height="24" viewBox="0 0 24 24" fill="none" xmlns="http://www.w3.org/2000/svg">
<path fill-rule="evenodd" clip-rule="evenodd" d="M8 2C6.13616 2 4.57006 3.27477 4.12602 5H3C2.44772 5 2 5.44772 2 6C2 6.55228 2.44772 7 3 7H4V17H3C2.44772 17 2 17.4477 2 18C2 18.5523 2.44772 19 3 19H4.12602C4.57006 20.7252 6.13616 22 8 22H12C12.5523 22 13 21.5523 13 21C13 20.4477 12.5523 20 12 20H8C6.89543 20 6 19.1046 6 18V6C6 4.89543 6.89543 4 8 4H18C19.1046 4 20 4.89543 20 6V12C20 12.5523 20.4477 13 21 13C21.5523 13 22 12.5523 22 12V6C22 3.79086 20.2091 2 18 2H8ZM12 8.18751C12 7.35527 12.5479 7 13 7C13.4521 7 14 7.35527 14 8.18751C14 8.73452 13.8605 9.24154 13.6465 9.57824C13.4462 9.89347 13.2321 10 13 10C12.7679 10 12.5538 9.89347 12.3535 9.57824C12.1395 9.24154 12 8.73452 12 8.18751ZM13 5C11.4521 5 10 6.24197 10 8.18751C10 9.02938 10.2065 9.92861 10.6655 10.6509C11.1381 11.3947 11.9241 12 13 12C14.0759 12 14.8619 11.3947 15.3345 10.6509C15.7935 9.92861 16 9.02938 16 8.18751C16 6.24197 14.5479 5 13 5ZM10.4688 15.553C9.84048 15.8812 9.37832 16.3472 9.15389 17H12C12.5523 17 13 17.4477 13 18C13 18.5523 12.5523 19 12 19H9C7.98755 19 6.81952 18.1104 7.13901 16.7751C7.48643 15.3231 8.4352 14.3589 9.54274 13.7803C10.6283 13.2132 11.8866 13 13 13C13.7348 13 14.522 13.0926 15.2786 13.3121C15.809 13.466 16.1143 14.0207 15.9604 14.5511C15.8066 15.0815 15.2518 15.3868 14.7214 15.2329C14.1706 15.0731 13.5738 15 13 15C12.1124 15 11.1936 15.1743 10.4688 15.553ZM9.00007 17H9C8.99771 17 8.99783 16.9995 9.00007 17ZM20 15C20 14.4477 19.5523 14 19 14C18.4477 14 18 14.4477 18 15V17H16C15.4477 17 15 17.4477 15 18C15 18.5523 15.4477 19 16 19H18V21C18 21.5523 18.4477 22 19 22C19.5523 22 20 21.5523 20 21V19H22C22.5523 19 23 18.5523 23 18C23 17.4477 22.5523 17 22 17H20V15Z" fill="#FF560B"/>
</svg>
