<svg width="48" height="48" viewBox="0 0 48 48" fill="none" xmlns="http://www.w3.org/2000/svg">
<path d="M40.4794 10.2005L33.606 3.45375C32.6567 2.522 31.3797 2 30.0496 2L12.7692 2C9.03069 2 6 5.03069 6 8.76923L6 39.2308C6 42.9693 9.03069 46 12.7692 46H35.2308C38.9693 46 42 42.9693 42 39.2308V13.8237C42 12.4608 41.4521 11.1552 40.4794 10.2005Z" fill="#E0E0E0"/>
<path d="M22.4247 31.8536C23.174 32.4071 23.6528 32.4807 23.7985 32.4482C22.2477 34.0267 20.1869 33.3132 19.6145 32.3401C19.042 31.3671 19.7706 30.9346 20.3326 30.9346C20.9988 30.9346 21.4879 31.1616 22.4247 31.8536Z" fill="white" fill-opacity="0.6"/>
<path d="M32.9813 26.5998C32.232 26.0463 31.7532 25.9727 31.6075 26.0052C33.1583 24.4267 35.2191 25.1402 35.7915 26.1133C36.364 27.0863 35.6354 27.5188 35.0734 27.5188C34.4073 27.5188 33.9181 27.2918 32.9813 26.5998Z" fill="white" fill-opacity="0.6"/>
<path d="M24.4583 36.6912C24.8646 36.9813 25.1241 37.0199 25.2031 37.0029C24.3624 37.8301 23.2451 37.4562 22.9348 36.9462C22.6244 36.4363 23.0194 36.2096 23.3241 36.2096C23.6852 36.2096 23.9504 36.3286 24.4583 36.6912Z" fill="white" fill-opacity="0.6"/>
<path d="M24.7446 20.318C24.4948 20.0966 24.3352 20.0672 24.2866 20.0802C24.8036 19.4488 25.4905 19.7342 25.6813 20.1234C25.8721 20.5127 25.6293 20.6856 25.4419 20.6856C25.2199 20.6856 25.0568 20.5948 24.7446 20.318Z" fill="white" fill-opacity="0.6"/>
<path d="M30.7303 32.9603C31.314 32.6947 31.5236 32.4306 31.5554 32.3318C31.9357 33.7986 30.8021 34.8014 30.0354 34.8191C29.2687 34.8368 29.2702 34.2518 29.4659 33.9128C29.6979 33.511 30.0006 33.2924 30.7303 32.9603Z" fill="white" fill-opacity="0.6"/>
<path d="M24.0524 31.7602C23.0225 32.8785 21.8963 32.9137 21.3102 32.9137C20.5357 32.9137 19.6475 32.4738 19.4053 32.0241C20.8183 34.8787 23.2465 35.3283 24.7327 35.3283C25.7374 35.3283 26.9662 35.0722 28.4482 34.0086C30.3008 32.6791 30.8897 30.1747 28.9087 29.59C27.1385 29.0675 25.3397 30.3623 24.0524 31.7602Z" fill="white"/>
<path d="M19.4053 25.0781C21.3576 28.2503 18.6151 30.6799 18.6151 30.6799C21.8457 30.2025 22.4985 27.0357 22.7373 25.437C22.8987 24.3561 22.6589 23.1688 21.8456 21.4175C20.8289 19.2284 18.8206 18.345 17.9411 19.9533C16.984 21.7037 18.3686 23.3934 19.4053 25.0781Z" fill="white" fill-opacity="0.6"/>
<path d="M31.3539 26.6943C32.3838 25.576 33.5099 25.5408 34.0961 25.5408C34.8706 25.5408 35.7588 25.9807 36.0009 26.4304C34.588 23.5759 32.1598 23.1262 30.6736 23.1262C29.6688 23.1262 28.4401 23.3823 26.958 24.4459C25.1055 25.7754 24.5165 28.2799 26.4975 28.8645C28.2678 29.387 30.0665 28.0922 31.3539 26.6943Z" fill="white"/>
<path d="M25.3765 36.6544C24.8203 37.3028 24.2121 37.3232 23.8955 37.3232C23.4772 37.3232 22.9975 37.0682 22.8667 36.8075C23.6298 38.4625 24.9413 38.7232 25.744 38.7232C26.2866 38.7232 26.9503 38.5747 27.7507 37.958C28.7513 37.1872 29.0693 35.7351 27.9994 35.3961C27.0433 35.0932 26.0718 35.8439 25.3765 36.6544Z" fill="white"/>
<path d="M24.2722 20.411C24.5999 20.0382 24.9582 20.0265 25.1447 20.0265C25.3911 20.0265 25.6737 20.1731 25.7508 20.323C25.3012 19.3715 24.5286 19.2216 24.0557 19.2216C23.736 19.2216 23.345 19.307 22.8735 19.6615C22.284 20.1047 22.0967 20.9395 22.727 21.1344C23.2902 21.3085 23.8626 20.8769 24.2722 20.411Z" fill="white"/>
<path d="M31.279 31.9158C31.6431 32.9511 31.2751 33.6409 31.0717 33.9931C30.803 34.4585 30.2112 34.8284 29.8371 34.8064C32.1685 35.0205 33.301 33.7289 33.8166 32.8359C34.1651 32.2321 34.4262 31.3984 34.2543 30.1118C34.0394 28.5035 32.6282 27.2169 31.5638 28.1895C30.6127 29.0586 30.8238 30.6216 31.279 31.9158Z" fill="white"/>
<path d="M22.1512 24.1644C21.5427 24.91 20.8772 24.9334 20.5309 24.9334C20.0732 24.9334 19.0603 24.6459 18.9172 24.3461C19.7521 26.2491 21.675 26.5432 22.5532 26.5432C23.147 26.5432 23.873 26.3724 24.7488 25.6634C25.8435 24.777 26.1915 23.1074 25.0209 22.7176C23.9749 22.3693 22.912 23.2325 22.1512 24.1644Z" fill="white"/>
<path d="M18.6391 28.3887C19.6107 29.2988 21.3877 28.9996 21.6023 28.9822C18.4299 32.3987 15.167 29.9911 14.5257 28.5322C13.8844 27.0734 15.007 26.611 15.8119 26.7173C16.7658 26.8434 17.4246 27.2511 18.6391 28.3887Z" fill="white"/>
<ellipse cx="25.0187" cy="39.9635" rx="7.07683" ry="0.732086" fill="white" fill-opacity="0.6"/>
</svg>
