<svg width="32" height="32" viewBox="0 0 32 32" fill="none" xmlns="http://www.w3.org/2000/svg">
<path d="M17.2261 5.70115C16.4263 5.46123 15.5738 5.46123 14.774 5.70115L6.09354 8.30529C5.64235 8.44065 5.33337 8.85593 5.33337 9.32698V11.7333C5.33337 12.3224 5.81094 12.8 6.40004 12.8H25.6C26.1891 12.8 26.6667 12.3224 26.6667 11.7333V9.32698C26.6667 8.85593 26.3577 8.44065 25.9065 8.30529L17.2261 5.70115Z" fill="#FFCE9D"/>
<rect x="7.46619" y="12.8001" width="3.2" height="10.6667" fill="#FFAD6C"/>
<rect x="21.3334" y="12.8" width="3.2" height="10.6667" fill="#FFAD6C"/>
<rect x="7.46619" y="12.8001" width="3.2" height="1.06667" fill="#F29D59"/>
<rect x="21.3334" y="12.8" width="3.2" height="1.06667" fill="#F29D59"/>
<path d="M6.40002 24.5333C6.40002 23.9442 6.87759 23.4667 7.46669 23.4667L24.5334 23.4667C25.1225 23.4667 25.6 23.9442 25.6 24.5333L6.40002 24.5333Z" fill="#FFAD6C"/>
<path d="M5.86671 26.6667C5.57215 26.6667 5.33337 26.4279 5.33337 26.1333L5.33337 25.6C5.33337 25.0109 5.81094 24.5333 6.40004 24.5333L25.6 24.5333C26.1891 24.5333 26.6667 25.0109 26.6667 25.6L26.6667 26.1333C26.6667 26.4279 26.4279 26.6667 26.1334 26.6667L5.86671 26.6667Z" fill="#FF8C48"/>
<path d="M14.4 12.8H17.6V23.4667H14.4V12.8Z" fill="#FFAD6C"/>
<path d="M14.4 12.8H17.6V13.8667H14.4V12.8Z" fill="#F29D59"/>
</svg>
