<svg width="24" height="24" viewBox="0 0 24 24" fill="none" xmlns="http://www.w3.org/2000/svg">
<path fill-rule="evenodd" clip-rule="evenodd" d="M4 5.5C4 3.84315 5.34315 2.5 7 2.5H14.1716C14.9672 2.5 15.7303 2.81607 16.2929 3.37867L19.1213 6.20707C19.6839 6.76968 20 7.53274 20 8.3284V10C20 10.5523 19.5523 11 19 11C18.4477 11 18 10.5523 18 10V8.3284C18 8.06318 17.8946 7.80882 17.7071 7.62129L14.8787 4.79289C14.6911 4.60536 14.4368 4.5 14.1716 4.5H7C6.44772 4.5 6 4.94772 6 5.5V18.5C6 19.0523 6.44772 19.5 7 19.5H14C14.5523 19.5 15 19.9477 15 20.5C15 21.0523 14.5523 21.5 14 21.5H7C5.34315 21.5 4 20.1569 4 18.5V5.5ZM8 14.5C8 13.9477 8.44772 13.5 9 13.5H11C11.5523 13.5 12 13.9477 12 14.5V16.5C12 17.0523 11.5523 17.5 11 17.5H9C8.44772 17.5 8 17.0523 8 16.5V14.5ZM20.7526 14.1585C21.1163 13.7429 21.0741 13.1111 20.6585 12.7474C20.2429 12.3837 19.6111 12.4259 19.2474 12.8415L15.7474 16.8415C15.489 17.1368 15.4272 17.5559 15.5894 17.9132C15.7515 18.2705 16.1076 18.5 16.5 18.5H18.7962L16.7474 20.8415C16.3837 21.2571 16.4259 21.8889 16.8415 22.2526C17.2571 22.6163 17.8889 22.5741 18.2526 22.1585L21.7526 18.1585C22.011 17.8632 22.0728 17.4441 21.9106 17.0868C21.7485 16.7295 21.3924 16.5 21 16.5H18.7038L20.7526 14.1585Z" fill="#27303D"/>
</svg>
