<svg width="24" height="24" viewBox="0 0 24 24" fill="none" xmlns="http://www.w3.org/2000/svg">
<path fill-rule="evenodd" clip-rule="evenodd" d="M4.12602 5C4.57006 3.27477 6.13616 2 8 2H18C20.2091 2 22 3.79086 22 6V18C22 20.2091 20.2091 22 18 22H8C6.13616 22 4.57006 20.7252 4.12602 19H3C2.44772 19 2 18.5523 2 18C2 17.4477 2.44772 17 3 17H4V7H3C2.44772 7 2 6.55228 2 6C2 5.44772 2.44772 5 3 5H4.12602ZM8 4C6.89543 4 6 4.89543 6 6V18C6 19.1046 6.89543 20 8 20H18C19.1046 20 20 19.1046 20 18V6C20 4.89543 19.1046 4 18 4H8ZM13 7C12.5479 7 12 7.35527 12 8.18751C12 8.73452 12.1395 9.24154 12.3535 9.57824C12.5538 9.89347 12.7679 10 13 10C13.2321 10 13.4462 9.89347 13.6465 9.57824C13.8605 9.24154 14 8.73452 14 8.18751C14 7.35527 13.4521 7 13 7ZM10 8.18751C10 6.24197 11.4521 5 13 5C14.5479 5 16 6.24197 16 8.18751C16 9.02938 15.7935 9.92861 15.3345 10.6509C14.8619 11.3947 14.0759 12 13 12C11.9241 12 11.1381 11.3947 10.6655 10.6509C10.2065 9.92861 10 9.02938 10 8.18751ZM9.15389 17H16.8461C16.6217 16.3472 16.1595 15.8812 15.5312 15.553C14.8064 15.1743 13.8876 15 13 15C12.1124 15 11.1936 15.1743 10.4688 15.553C9.84048 15.8812 9.37832 16.3472 9.15389 17ZM17 17H16.9999C17.0022 16.9995 17.0023 17 17 17ZM9.00007 17H9C8.99771 17 8.99783 16.9995 9.00007 17ZM9.54274 13.7803C10.6283 13.2132 11.8866 13 13 13C14.1134 13 15.3717 13.2132 16.4573 13.7803C17.5648 14.3589 18.5136 15.3231 18.861 16.7751C19.1805 18.1104 18.0124 19 17 19H9C7.98755 19 6.81952 18.1104 7.13901 16.7751C7.48643 15.3231 8.4352 14.3589 9.54274 13.7803Z" fill="#27303D"/>
</svg>
