<svg width="20" height="20" viewBox="0 0 20 20" fill="none" xmlns="http://www.w3.org/2000/svg">
<path fill-rule="evenodd" clip-rule="evenodd" d="M3.33329 9.16667C3.33329 5.94501 5.94497 3.33333 9.16663 3.33333L10.8333 3.33333C14.055 3.33333 16.6666 5.94501 16.6666 9.16667V10.8333C16.6666 14.055 14.055 16.6667 10.8333 16.6667H9.16663C5.94496 16.6667 3.33329 14.055 3.33329 10.8333L3.33329 9.16667ZM9.16663 1.66667C5.02449 1.66667 1.66663 5.02453 1.66663 9.16667L1.66663 10.8333C1.66663 14.9755 5.02449 18.3333 9.16663 18.3333H10.8333C14.9754 18.3333 18.3333 14.9755 18.3333 10.8333V9.16667C18.3333 5.02453 14.9754 1.66667 10.8333 1.66667H9.16663ZM9.58329 5C9.12305 5 8.74996 5.3731 8.74996 5.83333V6.66667C8.74996 7.1269 9.12305 7.5 9.58329 7.5H10.4166C10.8769 7.5 11.25 7.1269 11.25 6.66667V5.83333C11.25 5.3731 10.8769 5 10.4166 5H9.58329ZM10.8333 10C10.8333 9.53976 10.4602 9.16667 9.99996 9.16667C9.53972 9.16667 9.16663 9.53976 9.16663 10V14.1667C9.16663 14.6269 9.53972 15 9.99996 15C10.4602 15 10.8333 14.6269 10.8333 14.1667V10Z" fill="#FF560B"/>
</svg>
