<svg width="48" height="48" viewBox="0 0 48 48" fill="none" xmlns="http://www.w3.org/2000/svg">
<rect width="48" height="48" rx="14" fill="#FFCC00" fill-opacity="0.1"/>
<mask id="mask0_1_659" style="mask-type:alpha" maskUnits="userSpaceOnUse" x="8" y="8" width="32" height="32">
<rect x="8" y="8" width="32" height="32" fill="#D9D9D9"/>
</mask>
<g mask="url(#mask0_1_659)">
<ellipse cx="24.18" cy="24.6373" rx="13.9574" ry="6.64637" fill="#FFCC00"/>
<path d="M25.9786 23.2119C25.9847 23.3072 25.9878 23.3806 25.9878 23.4319C25.9878 23.7056 25.9482 23.9369 25.8688 24.1259C25.7988 24.3035 25.6874 24.462 25.5437 24.5881C25.4057 24.7055 25.2439 24.7917 25.0693 24.8408C24.883 24.8935 24.6902 24.9195 24.4966 24.9181H24.3773C24.2906 24.9179 24.2039 24.913 24.1177 24.9033C24.0281 24.8936 23.9399 24.8729 23.8553 24.8417C23.7681 24.8091 23.6865 24.7629 23.6137 24.7049C23.5348 24.6413 23.4698 24.5623 23.4227 24.4729C23.3422 24.597 23.237 24.7034 23.1136 24.7853C22.9758 24.8763 22.8134 24.923 22.6482 24.9191C22.5759 24.9187 22.5039 24.9107 22.4334 24.8953C22.3553 24.8787 22.2793 24.8538 22.2065 24.8211C22.1297 24.7869 22.0571 24.7439 21.9902 24.6932C21.9208 24.6396 21.8604 24.5753 21.8112 24.5028C21.6917 24.6811 21.5605 24.7951 21.4175 24.8448C21.2752 24.8947 21.1255 24.9202 20.9746 24.9203C20.748 24.9203 20.5701 24.8792 20.4409 24.797C20.3088 24.7134 20.1959 24.6029 20.1096 24.4729C20.0118 24.6189 19.8756 24.7352 19.7158 24.809C19.5568 24.8824 19.3499 24.9191 19.0953 24.9191H18.976C18.8581 24.9211 18.7407 24.9048 18.628 24.8707C18.5327 24.8401 18.4473 24.7847 18.3807 24.7101V24.8587C18.3845 25.1114 18.3272 25.3614 18.2135 25.5874C18.1031 25.8024 17.9463 25.9903 17.7543 26.1375C17.5489 26.2936 17.3176 26.4124 17.0709 26.4885C16.7998 26.5735 16.517 26.6157 16.2328 26.6136C15.6483 26.6138 15.2088 26.478 14.9144 26.2062C14.6199 25.9344 14.4727 25.5447 14.4727 25.0371C14.4729 24.8916 14.4968 24.6807 14.5444 24.4041C14.592 24.1276 14.6974 23.7737 14.8606 23.3423L15.5764 23.5509C15.5316 23.7294 15.4953 23.8871 15.4672 24.0239C15.4392 24.1607 15.4174 24.2797 15.4017 24.3807C15.387 24.4675 15.3767 24.5549 15.3708 24.6426C15.3669 24.716 15.365 24.7783 15.365 24.8297C15.3638 24.9153 15.38 25.0003 15.4125 25.0796C15.4467 25.158 15.5014 25.2257 15.5708 25.2759C15.657 25.3373 15.7543 25.3818 15.8573 25.4069C15.9988 25.4414 16.1443 25.4573 16.29 25.4543C16.4703 25.4565 16.6503 25.4395 16.8271 25.4038C16.9619 25.3768 17.0931 25.3338 17.2177 25.2759C17.3088 25.2347 17.3909 25.1762 17.4594 25.1036C17.509 25.0542 17.5386 24.9885 17.5429 24.9188L17.4536 20.6355L18.3782 20.5461V23.1346C18.3752 23.2402 18.3893 23.3456 18.42 23.4467C18.443 23.5203 18.4857 23.5861 18.5436 23.6371C18.5979 23.6832 18.6622 23.7158 18.7315 23.7324C18.8116 23.7512 18.8937 23.7602 18.976 23.7592H19.0965C19.2133 23.7627 19.33 23.7485 19.4426 23.7173C19.5274 23.6916 19.601 23.6382 19.6516 23.5657C19.7033 23.4925 19.7381 23.3904 19.756 23.2594C19.7759 23.0896 19.7847 22.9187 19.7826 22.7478H20.5883V23.1592C20.5883 23.1751 20.5883 23.1908 20.5882 23.2064C20.5881 23.2254 20.5879 23.2441 20.5876 23.2627C20.5871 23.2995 20.5863 23.3354 20.5852 23.3706C20.5831 23.4381 20.5803 23.4976 20.5763 23.549C20.6278 23.6402 20.6934 23.6978 20.7731 23.7216C20.8485 23.7448 20.9269 23.7568 21.0058 23.7573C21.0781 23.7597 21.1498 23.7444 21.2148 23.7126C21.2768 23.6754 21.325 23.6191 21.352 23.5521C21.393 23.4538 21.4191 23.3499 21.4296 23.244C21.4472 23.079 21.4552 22.9131 21.4534 22.7472H22.2588V23.1755C22.2588 23.2507 22.2575 23.3238 22.2557 23.3956C22.2538 23.4674 22.2507 23.5287 22.2467 23.5805C22.3017 23.6471 22.3739 23.6974 22.4556 23.7259C22.5271 23.7478 22.6015 23.7589 22.6763 23.7589C22.737 23.7612 22.7974 23.7489 22.8525 23.7231C22.8979 23.6994 22.9337 23.6485 22.9597 23.5715C22.9914 23.461 23.0105 23.3473 23.0166 23.2326C23.0285 23.0838 23.0345 22.8826 23.0345 22.6289H23.8371V23.2714C23.8371 23.4578 23.8788 23.5857 23.9607 23.655C24.0419 23.7245 24.1801 23.7592 24.3752 23.7592H24.5244C24.6213 23.7609 24.7181 23.7539 24.8137 23.7382C24.8733 23.7285 24.9314 23.7115 24.9868 23.6877C25.0204 23.6745 25.0494 23.6518 25.0702 23.6224C25.0835 23.6008 25.0907 23.5761 25.0913 23.5509C25.0913 23.4757 25.0823 23.3426 25.0644 23.1524C25.0462 22.962 25.0153 22.6884 24.9716 22.3315L25.8679 22.1827C25.8842 22.2934 25.8992 22.4113 25.913 22.5364L25.927 22.6635L25.9384 22.7695C25.9431 22.8125 25.9476 22.8548 25.952 22.8964C25.9635 23.0114 25.9724 23.1166 25.9786 23.2119Z" fill="black"/>
<path d="M25.361 21.7661L25.8982 21.2308V21.1414L25.361 20.6062H25.2717L24.7346 21.1414V21.2308L25.2717 21.7661H25.361Z" fill="black"/>
<path d="M27.3597 20.5467V24.8895L26.5247 24.9489L26.435 20.6361L27.3597 20.5467Z" fill="black"/>
<path d="M31.0291 25.3594L30.522 25.8651L30.0148 25.3594H29.9252L29.418 25.8651V25.9541L29.9252 26.4598H30.0148L30.522 25.9541L31.0291 26.4598H31.1185L31.6256 25.9541V25.8651L31.1185 25.3594H31.0291Z" fill="black"/>
<path d="M29.8358 24.9191H29.7162L29.7103 24.9184C29.5982 24.9207 29.4864 24.9047 29.3793 24.871C29.2838 24.8377 29.1986 24.7803 29.1321 24.7043C29.0888 25.2834 28.8931 25.7226 28.5449 26.0219C28.1967 26.3212 27.7203 26.4789 27.1158 26.4949L26.9069 25.5132C27.1275 25.4664 27.3444 25.4037 27.5559 25.3258C27.6978 25.2738 27.8338 25.2071 27.9617 25.1267C28.0466 25.0756 28.1202 25.0077 28.1781 24.9274C28.2162 24.871 28.2416 24.8071 28.2525 24.74C28.2527 24.6209 28.2309 24.4037 28.187 24.0886C28.1431 23.7735 28.0754 23.3758 27.984 22.8957L28.8802 22.6578C28.9321 22.9033 28.9798 23.0985 29.0233 23.2433C29.055 23.3621 29.1065 23.4747 29.1757 23.5764C29.2266 23.6492 29.3015 23.7018 29.3874 23.725C29.495 23.7495 29.6052 23.7606 29.7156 23.758H29.8646C29.9615 23.7596 30.0584 23.7526 30.1542 23.737C30.2136 23.7272 30.2716 23.7103 30.3269 23.6865C30.3419 23.6806 30.3559 23.6728 30.3688 23.6634C30.3848 23.6517 30.399 23.6374 30.4107 23.6211C30.4237 23.5995 30.4308 23.5749 30.4314 23.5496C30.4314 23.4744 30.4224 23.3413 30.4045 23.1512C30.3866 22.9608 30.3557 22.6871 30.3118 22.3303L31.208 22.1815C31.2243 22.2922 31.2392 22.4101 31.2528 22.5352C31.2664 22.6603 31.2793 22.7803 31.2915 22.8951C31.3034 23.0102 31.3124 23.1153 31.3184 23.2107C31.3243 23.306 31.3273 23.3793 31.3273 23.4307C31.3273 23.7043 31.2876 23.9364 31.208 24.1268C31.1379 24.3044 31.0264 24.4628 30.8829 24.589C30.7449 24.7063 30.583 24.7925 30.4085 24.8417C30.2222 24.8944 30.0294 24.9204 29.8358 24.9191Z" fill="black"/>
<path d="M31.8642 24.9489L32.6995 24.8895V20.5467L31.7748 20.6361L31.8642 24.9489Z" fill="black"/>
<path d="M20.5295 27.3556L21.2725 28.3617L21.9373 27.3556H22.5823V29.9212H21.8786V28.4825L21.4094 29.1764H21.0416L20.5255 28.4825V29.9212H19.8805V27.3556H20.5295Z" fill="black"/>
<path d="M22.942 27.9368H23.7867V29.9212H24.5025V27.9368H25.3431V27.3556H22.942V27.9368Z" fill="black"/>
<path d="M26.3442 27.3556L27.5016 28.7709V27.3556H28.1469V29.9212H27.5563L26.3482 28.4551V29.9212H25.7029V27.3556H26.3442Z" fill="black"/>
<path fill-rule="evenodd" clip-rule="evenodd" d="M24.0135 17.3333C27.8625 17.3333 31.4905 18.0529 34.2294 19.357C37.1082 20.7279 38.6937 22.6027 38.6937 24.6365C38.6937 26.6703 37.1082 28.5451 34.2297 29.9173C31.4908 31.2213 27.8634 31.9396 24.0135 31.9396C20.1636 31.9396 16.5344 31.2201 13.7971 29.916C10.9185 28.5451 9.33337 26.6703 9.33337 24.6365C9.33337 22.6027 10.9185 20.7279 13.7971 19.357C16.5344 18.0529 20.1646 17.3333 24.0135 17.3333ZM24.0132 30.749C27.6885 30.749 31.1336 30.0719 33.7151 28.8427C36.1208 27.697 37.5007 26.164 37.5007 24.6365C37.5007 23.109 36.1208 21.5759 33.7151 20.4302C31.1336 19.202 27.6885 18.524 24.0132 18.524C20.3379 18.524 16.8926 19.201 14.3113 20.4302C11.906 21.5759 10.5263 23.109 10.5263 24.6365C10.5263 26.164 11.906 27.697 14.3113 28.8427C16.8923 30.071 20.3379 30.749 24.0132 30.749Z" fill="black"/>
</g>
</svg>
