<svg width="48" height="48" viewBox="0 0 48 48" fill="none" xmlns="http://www.w3.org/2000/svg">
<path d="M40.4794 10.2005L33.606 3.45375C32.6567 2.522 31.3797 2 30.0496 2L12.7692 2C9.03069 2 6 5.03069 6 8.76923L6 39.2308C6 42.9693 9.03069 46 12.7692 46H35.2308C38.9693 46 42 42.9693 42 39.2308V13.8237C42 12.4608 41.4521 11.1552 40.4794 10.2005Z" fill="#FFCC00"/>
<ellipse cx="24.5346" cy="31.149" rx="13.6635" ry="6.50642" fill="#FFCC00"/>
<path d="M26.2947 29.7548C26.3007 29.8481 26.3038 29.9199 26.3038 29.9702C26.3038 30.238 26.2649 30.4645 26.1873 30.6495C26.1187 30.8234 26.0096 30.9785 25.869 31.102C25.7339 31.2169 25.5755 31.3013 25.4046 31.3494C25.2223 31.4009 25.0335 31.4264 24.844 31.4251H24.7272C24.6423 31.4249 24.5574 31.4201 24.473 31.4106C24.3853 31.4011 24.299 31.3808 24.2162 31.3503C24.1307 31.3183 24.0509 31.2731 23.9796 31.2163C23.9024 31.1541 23.8388 31.0768 23.7926 30.9892C23.7139 31.1107 23.6109 31.2149 23.4901 31.2951C23.3552 31.3842 23.1962 31.4299 23.0344 31.426C22.9637 31.4256 22.8932 31.4178 22.8242 31.4028C22.7477 31.3865 22.6733 31.3621 22.6021 31.3301C22.5269 31.2966 22.4558 31.2546 22.3903 31.2049C22.3224 31.1524 22.2632 31.0895 22.2151 31.0184C22.0981 31.193 21.9697 31.3046 21.8297 31.3533C21.6904 31.4021 21.5438 31.4271 21.3961 31.4272C21.1743 31.4272 21.0001 31.387 20.8736 31.3065C20.7443 31.2247 20.6338 31.1165 20.5493 30.9892C20.4536 31.1321 20.3202 31.246 20.1638 31.3183C20.0081 31.3901 19.8056 31.426 19.5563 31.426H19.4395C19.3242 31.428 19.2093 31.412 19.0989 31.3786C19.0056 31.3487 18.922 31.2944 18.8568 31.2215V31.3669C18.8606 31.6143 18.8044 31.859 18.6932 32.0803C18.5851 32.2907 18.4315 32.4746 18.2436 32.6188C18.0425 32.7716 17.8161 32.8878 17.5746 32.9623C17.3092 33.0456 17.0324 33.0869 16.7541 33.0848C16.1819 33.085 15.7517 32.9521 15.4635 32.686C15.1752 32.42 15.0311 32.0385 15.0311 31.5415C15.0313 31.3991 15.0547 31.1926 15.1013 30.9219C15.1479 30.6512 15.2511 30.3047 15.4108 29.8824L16.1115 30.0866C16.0677 30.2614 16.0321 30.4157 16.0047 30.5497C15.9773 30.6836 15.9559 30.8 15.9406 30.899C15.9262 30.9839 15.9161 31.0695 15.9103 31.1554C15.9065 31.2272 15.9046 31.2882 15.9046 31.3385C15.9035 31.4224 15.9193 31.5056 15.9512 31.5832C15.9846 31.6599 16.0381 31.7262 16.1061 31.7753C16.1905 31.8355 16.2857 31.879 16.3865 31.9035C16.5251 31.9373 16.6675 31.9529 16.8101 31.95C16.9866 31.9521 17.1629 31.9355 17.3359 31.9005C17.4679 31.8741 17.5963 31.832 17.7183 31.7753C17.8075 31.735 17.8879 31.6777 17.9549 31.6067C18.0034 31.5583 18.0325 31.4939 18.0366 31.4257L17.9492 27.2326L18.8544 27.1451V29.6791C18.8515 29.7824 18.8653 29.8856 18.8953 29.9846C18.9178 30.0567 18.9596 30.1211 19.0163 30.1711C19.0694 30.2161 19.1324 30.248 19.2002 30.2643C19.2786 30.2827 19.359 30.2915 19.4395 30.2905H19.5575C19.6719 30.2939 19.7862 30.2801 19.8964 30.2495C19.9794 30.2244 20.0514 30.1721 20.1009 30.1011C20.1515 30.0295 20.1856 29.9295 20.2032 29.8012C20.2226 29.6351 20.2313 29.4678 20.2292 29.3005H21.0179V29.7032C21.0179 29.7188 21.0179 29.7341 21.0178 29.7494C21.0177 29.768 21.0175 29.7863 21.0173 29.8045C21.0168 29.8405 21.016 29.8757 21.0149 29.9101C21.0128 29.9762 21.0101 30.0344 21.0061 30.0848C21.0566 30.1741 21.1208 30.2304 21.1989 30.2537C21.2727 30.2764 21.3494 30.2882 21.4267 30.2887C21.4974 30.291 21.5676 30.276 21.6312 30.245C21.6919 30.2086 21.7391 30.1534 21.7655 30.0878C21.8057 29.9916 21.8313 29.8899 21.8415 29.7862C21.8588 29.6247 21.8665 29.4623 21.8648 29.2999H22.6532V29.7192C22.6532 29.7928 22.652 29.8643 22.6502 29.9346C22.6484 30.0049 22.6453 30.0649 22.6414 30.1156C22.6952 30.1808 22.766 30.2301 22.8459 30.258C22.9159 30.2794 22.9887 30.2903 23.062 30.2902C23.1214 30.2925 23.1806 30.2805 23.2344 30.2552C23.2789 30.232 23.314 30.1822 23.3394 30.1068C23.3705 29.9987 23.3892 29.8873 23.3951 29.775C23.4068 29.6294 23.4126 29.4324 23.4126 29.184H24.1983V29.813C24.1983 29.9955 24.2392 30.1207 24.3194 30.1886C24.3988 30.2566 24.5341 30.2905 24.7251 30.2905H24.8712C24.966 30.2922 25.0608 30.2853 25.1544 30.27C25.2127 30.2605 25.2696 30.2439 25.3238 30.2206C25.3567 30.2076 25.3851 30.1854 25.4055 30.1566C25.4185 30.1355 25.4256 30.1113 25.4261 30.0866C25.4261 30.013 25.4173 29.8827 25.3998 29.6966C25.382 29.5101 25.3517 29.2423 25.309 28.8929L26.1864 28.7472C26.2023 28.8556 26.217 28.9711 26.2306 29.0935L26.2442 29.218L26.2554 29.3217C26.2599 29.3638 26.2644 29.4052 26.2687 29.4459C26.28 29.5585 26.2886 29.6615 26.2947 29.7548Z" fill="black"/>
<path d="M25.6902 28.3394L26.216 27.8154V27.7279L25.6902 27.2039H25.6027L25.0769 27.7279V27.8154L25.6027 28.3394H25.6902Z" fill="black"/>
<path d="M27.6468 27.1457V31.397L26.8293 31.4552L26.7416 27.2332L27.6468 27.1457Z" fill="black"/>
<path d="M31.2389 31.8571L30.7424 32.3521L30.246 31.8571H30.1582L29.6617 32.3521V32.4393L30.1582 32.9343H30.246L30.7424 32.4393L31.2389 32.9343H31.3264L31.8228 32.4393V32.3521L31.3264 31.8571H31.2389Z" fill="black"/>
<path d="M30.0707 31.426H29.9537L29.9479 31.4254C29.8381 31.4276 29.7286 31.4119 29.6239 31.3789C29.5304 31.3464 29.447 31.2901 29.3818 31.2157C29.3395 31.7826 29.1479 32.2126 28.807 32.5056C28.4661 32.7986 27.9998 32.953 27.408 32.9687L27.2035 32.0076C27.4194 31.9618 27.6318 31.9005 27.8388 31.8242C27.9777 31.7733 28.1109 31.708 28.2361 31.6293C28.3192 31.5792 28.3913 31.5128 28.4479 31.4341C28.4852 31.379 28.5101 31.3164 28.5208 31.2507C28.521 31.1341 28.4996 30.9215 28.4566 30.613C28.4137 30.3045 28.3474 29.9153 28.2579 29.4453L29.1353 29.2124C29.1861 29.4527 29.2328 29.6438 29.2753 29.7855C29.3063 29.9018 29.3568 30.0121 29.4245 30.1116C29.4743 30.1828 29.5477 30.2343 29.6317 30.257C29.7371 30.2811 29.845 30.2919 29.953 30.2893H30.0989C30.1938 30.291 30.2887 30.2841 30.3824 30.2688C30.4406 30.2593 30.4973 30.2427 30.5515 30.2193C30.5661 30.2136 30.5799 30.206 30.5925 30.1968C30.6082 30.1853 30.622 30.1713 30.6335 30.1554C30.6462 30.1342 30.6532 30.1101 30.6537 30.0854C30.6537 30.0118 30.645 29.8815 30.6274 29.6954C30.6099 29.5089 30.5796 29.2411 30.5367 28.8917L31.4141 28.746C31.43 28.8544 31.4446 28.9699 31.4579 29.0923C31.4712 29.2148 31.4838 29.3323 31.4957 29.4447C31.5074 29.5573 31.5162 29.6603 31.5221 29.7536C31.5279 29.8469 31.5308 29.9187 31.5308 29.969C31.5308 30.2368 31.4919 30.464 31.4141 30.6504C31.3454 30.8242 31.2363 30.9793 31.0958 31.1029C30.9606 31.2177 30.8022 31.3021 30.6314 31.3503C30.449 31.4018 30.2603 31.4273 30.0707 31.426Z" fill="black"/>
<path d="M32.0564 31.4552L32.8742 31.397V27.1457L31.9689 27.2332L32.0564 31.4552Z" fill="black"/>
<path d="M20.9604 33.8112L21.6877 34.7961L22.3385 33.8112H22.9699V36.3228H22.281V34.9144L21.8218 35.5937H21.4617L20.9565 34.9144V36.3228H20.325V33.8112H20.9604Z" fill="black"/>
<path d="M23.3221 34.3801H24.149V36.3228H24.8497V34.3801H25.6726V33.8112H23.3221V34.3801Z" fill="black"/>
<path d="M26.6526 33.8112L27.7857 35.1967V33.8112H28.4174V36.3228H27.8392L26.6566 34.8875V36.3228H26.0248V33.8112H26.6526Z" fill="black"/>
<path fill-rule="evenodd" clip-rule="evenodd" d="M24.371 24C28.139 24 31.6906 24.7044 34.3718 25.981C37.19 27.3231 38.7421 29.1584 38.7421 31.1494C38.7421 33.1403 37.19 34.9756 34.3721 36.3189C31.6909 37.5956 28.1399 38.2987 24.371 38.2987C20.6022 38.2987 17.0494 37.5944 14.3697 36.3177C11.5518 34.9756 10 33.1403 10 31.1494C10 29.1584 11.5518 27.3231 14.3697 25.981C17.0494 24.7044 20.6031 24 24.371 24ZM24.3707 37.1331C27.9686 37.1331 31.3412 36.4704 33.8683 35.2671C36.2234 34.1455 37.5743 32.6447 37.5743 31.1494C37.5743 29.654 36.2234 28.1533 33.8683 27.0317C31.3412 25.8293 27.9686 25.1656 24.3707 25.1656C20.7728 25.1656 17.4 25.8284 14.8732 27.0317C12.5184 28.1533 11.1678 29.654 11.1678 31.1494C11.1678 32.6447 12.5184 34.1455 14.8732 35.2671C17.3997 36.4695 20.7728 37.1331 24.3707 37.1331Z" fill="black"/>
</svg>
