<svg width="48" height="48" viewBox="0 0 48 48" fill="none" xmlns="http://www.w3.org/2000/svg">
<rect width="48" height="48" rx="14" fill="#52C5CC" fill-opacity="0.1"/>
<mask id="mask0_1_652" style="mask-type:alpha" maskUnits="userSpaceOnUse" x="8" y="8" width="32" height="32">
<rect x="8" y="8" width="32" height="32" fill="#D9D9D9"/>
</mask>
<g mask="url(#mask0_1_652)">
<path fill-rule="evenodd" clip-rule="evenodd" d="M19.4313 29.6963C19.7098 29.5799 19.9883 29.4634 20.2668 29.353C20.2927 30.8103 20.2863 32.2744 20.2927 33.7317C20.2796 34.4505 20.0595 35.2732 19.3598 35.6685C18.7122 35.9793 18.032 36.2448 17.3585 36.5233C16.6331 36.8991 15.6486 37.4236 14.8845 36.7303C14.4311 35.8622 14.6902 34.5672 15.6163 34.0618C16.5314 33.6151 17.4723 33.2236 18.434 32.8891C18.4523 33.2065 18.4479 33.5247 18.421 33.8414C17.5854 34.3014 16.7109 34.6639 15.8687 35.0981C15.7251 35.1596 15.5985 35.2547 15.4993 35.3753C15.4001 35.496 15.3312 35.6387 15.2985 35.7914C15.3116 36.575 16.3546 36.1602 16.7301 35.9854C17.4683 35.5901 18.2394 35.2598 18.9776 34.8712C19.1227 34.7944 19.2423 34.677 19.3216 34.5332C19.4009 34.3895 19.4366 34.2255 19.4243 34.0618C19.4374 32.6045 19.4176 31.1537 19.4307 29.696L19.4313 29.6963Z" fill="#231F20"/>
<path fill-rule="evenodd" clip-rule="evenodd" d="M24.3527 29.6897C24.6209 29.5525 24.898 29.4334 25.1822 29.3333C25.2141 31.088 25.1889 32.8426 25.1956 34.5995C24.9235 34.7418 24.6452 34.865 24.36 34.9824C24.3342 33.2207 24.3533 31.4524 24.3533 29.6907L24.3527 29.6897Z" fill="#231F20"/>
<path fill-rule="evenodd" clip-rule="evenodd" d="M29.5274 29.6962C29.7998 29.573 30.0781 29.4565 30.3633 29.3528C30.3828 31.0625 30.3566 32.7665 30.3761 34.4765C30.1003 34.6228 29.812 34.7442 29.5146 34.8392C29.5082 33.1228 29.4757 31.4062 29.5274 29.6962Z" fill="#231F20"/>
<path fill-rule="evenodd" clip-rule="evenodd" d="M31.7175 32.8753C31.8577 32.3769 32.1415 31.9309 32.5336 31.5928C32.5576 31.9615 32.562 32.3314 32.5467 32.7005C32.286 32.8177 32.0031 32.8773 31.7172 32.8753H31.7175ZM33.0846 31.2482C33.4078 31.3671 33.7216 31.5101 34.0235 31.6758C33.7322 31.9674 33.4276 32.2391 33.1169 32.5052C33.085 32.0841 33.0849 31.663 33.0849 31.2485L33.0846 31.2482ZM32.6567 29.366C33.3369 29.7609 33.8419 30.3831 34.4114 30.9142C34.8 31.2381 34.7484 31.821 34.6058 32.2542C34.2692 32.9022 33.44 32.9538 32.9736 33.4589C33.0469 33.4943 33.1279 33.5111 33.2093 33.5078C33.2906 33.5045 33.3698 33.481 33.44 33.4397C33.9386 33.2193 34.4115 32.9347 34.9038 32.7015C34.931 33.1179 34.9288 33.5357 34.8974 33.9518C32.4747 35.0591 30.0784 36.2249 27.6553 37.3335C27.6486 37.0228 27.6486 36.7182 27.6617 36.4084C29.2808 35.6312 30.9133 34.8668 32.5455 34.096C32.5391 33.9148 32.5324 33.7269 32.5391 33.5389C32.1173 33.6988 31.6512 33.6964 31.231 33.5322C30.92 33.2927 30.9395 32.8585 31.0173 32.5152C31.2915 31.6688 31.7988 30.9168 32.481 30.3457C32.5099 30.015 32.5684 29.6877 32.6558 29.3675L32.6567 29.366Z" fill="#231F20"/>
<path fill-rule="evenodd" clip-rule="evenodd" d="M21.5936 31.743C22.2476 31.5162 22.9083 31.9372 23.362 32.3778C23.6516 32.6407 23.8585 32.9822 23.9574 33.3606C24.0564 33.7391 24.043 34.1381 23.919 34.509C23.7701 34.8782 23.362 35.014 23.0318 35.1761C22.1385 35.5647 21.2634 36.0117 20.3567 36.3885C20.3373 36.0711 20.3372 35.7602 20.3439 35.4428C21.2312 35.0022 22.1382 34.5941 23.0449 34.1797C23.223 34.0965 23.3904 33.9923 23.5435 33.8691C23.4919 33.7657 23.4398 33.6617 23.3818 33.558C22.7274 33.7265 22.164 34.1281 21.51 34.2771C21.3717 34.3133 21.2246 34.2933 21.1009 34.2216C20.9771 34.1499 20.8867 34.0322 20.8493 33.8942C20.6033 33.1365 20.8103 32.1077 21.5942 31.7437L21.5936 31.743ZM21.3278 33.3701C21.35 33.2139 21.4125 33.066 21.509 32.9411C21.6055 32.8162 21.7329 32.7185 21.8785 32.6576C22.1439 32.515 22.4161 32.6835 22.6624 32.7744C22.233 33.0058 21.787 33.2051 21.3281 33.3704L21.3278 33.3701Z" fill="#231F20"/>
<path fill-rule="evenodd" clip-rule="evenodd" d="M25.7198 35.5323C26.0825 34.7666 26.8014 34.2695 27.3788 33.6732C27.6835 33.9581 27.9878 34.2367 28.2721 34.541C27.6285 34.9648 26.9311 35.3003 26.1984 35.5387C26.0423 35.5881 25.8744 35.5858 25.7198 35.532V35.5323ZM26.8922 32.1706C27.572 32.5722 28.1045 33.181 28.6734 33.7125C29.0166 33.9846 28.9456 34.4505 28.9067 34.8263C28.8161 35.2343 28.408 35.4419 28.0711 35.6164C27.4888 35.9329 26.8798 36.1975 26.251 36.407C25.746 36.5432 25.1436 36.1415 25.2081 35.6094C25.2719 34.5859 26.0376 33.8021 26.7302 33.1024C26.7614 32.7881 26.8154 32.4765 26.8919 32.17L26.8922 32.1706Z" fill="#231F20"/>
<path fill-rule="evenodd" clip-rule="evenodd" d="M23.068 24.529C21.7899 25.0035 20.6505 25.6557 19.2336 25.9406C16.1514 26.7696 15.3032 25.5544 18.1831 22.2191C22.3857 17.8964 27.5693 14.8519 32.1136 12.8836C34.8036 11.9344 36.3533 12.257 35.4492 14.3205C34.3796 16.4659 32.367 17.9787 30.8479 19.5864C30.8922 19.6119 30.9364 19.6307 30.9807 19.6559C32.6953 18.0801 34.8986 16.4138 36.3669 14.1939C38.2277 11.4976 37.6451 9.59251 32.4746 11.3392C29.4048 12.3455 26.4492 14.0165 23.3034 16.1999C20.8475 17.8281 18.6209 19.7783 16.6833 21.9983C12.7338 26.6121 14.6881 27.9794 18.0312 26.9862C19.9668 26.3715 21.7958 25.6681 23.068 24.529Z" fill="#FCA61D"/>
<path fill-rule="evenodd" clip-rule="evenodd" d="M15.3837 23.706L15.2824 23.8582C14.7836 24.2444 14.3521 24.5605 13.757 25.0427C11.8077 26.5874 12.3644 27.9419 16.7887 27.9419C22.1506 27.575 27.4533 25.7651 31.7255 23.6636C34.485 22.0816 35.2572 20.9421 34.1119 20.1824C33.118 19.6256 32.0042 19.7082 30.9789 19.6571L31.2258 19.4295C32.3144 19.4043 36.574 19.3849 36.7701 20.8096C36.8839 21.626 36.0359 22.9485 32.6239 24.6509C30.1151 25.8919 27.5015 26.9086 24.8136 27.6892C21.6736 28.6176 18.4232 29.12 15.1495 29.1831C8.92156 29.0122 10.3013 26.8222 12.6306 25.145C13.4781 24.5415 14.4044 24.0573 15.3837 23.706Z" fill="#52C5CC"/>
</g>
</svg>
