<svg width="48" height="48" viewBox="0 0 48 48" fill="none" xmlns="http://www.w3.org/2000/svg">
<path d="M40.4794 10.2005L33.606 3.45375C32.6567 2.522 31.3797 2 30.0496 2L12.7692 2C9.03069 2 6 5.03069 6 8.76923L6 39.2308C6 42.9693 9.03069 46 12.7692 46H35.2308C38.9693 46 42 42.9693 42 39.2308V13.8237C42 12.4608 41.4521 11.1552 40.4794 10.2005Z" fill="#52C5CC"/>
<path fill-rule="evenodd" clip-rule="evenodd" d="M20.3442 33.3012C20.6094 33.1903 20.8744 33.0794 21.1396 32.9743C21.1642 34.3616 21.1581 35.7553 21.1642 37.1426C21.1517 37.8268 20.9422 38.61 20.2762 38.9863C19.6597 39.2821 19.0122 39.5348 18.3711 39.7999C17.6805 40.1577 16.7433 40.6569 16.016 39.997C15.5844 39.1706 15.831 37.9379 16.7126 37.4568C17.5837 37.0316 18.4794 36.6589 19.3949 36.3405C19.4122 36.6426 19.4081 36.9455 19.3824 37.247C18.587 37.6849 17.7546 38.0299 16.9529 38.4432C16.8162 38.5018 16.6956 38.5924 16.6012 38.7072C16.5068 38.822 16.4412 38.9579 16.4101 39.1033C16.4226 39.8491 17.4154 39.4543 17.7728 39.2879C18.4756 38.9116 19.2096 38.5972 19.9123 38.2273C20.0504 38.1541 20.1642 38.0424 20.2398 37.9055C20.3153 37.7687 20.3493 37.6127 20.3376 37.4568C20.35 36.0695 20.3312 34.6885 20.3436 33.3009L20.3442 33.3012Z" fill="#231F20"/>
<path fill-rule="evenodd" clip-rule="evenodd" d="M25.029 33.2946C25.2843 33.164 25.5481 33.0506 25.8186 32.9553C25.849 34.6257 25.825 36.2959 25.8314 37.9684C25.5723 38.1038 25.3074 38.2211 25.0359 38.3329C25.0113 36.6559 25.0296 34.9725 25.0296 33.2955L25.029 33.2946Z" fill="#231F20"/>
<path fill-rule="evenodd" clip-rule="evenodd" d="M29.9552 33.3012C30.2146 33.184 30.4794 33.0731 30.7509 32.9743C30.7695 34.6019 30.7446 36.2239 30.7631 37.8517C30.5006 37.991 30.2261 38.1065 29.9431 38.1969C29.937 36.563 29.906 34.929 29.9552 33.3012Z" fill="#231F20"/>
<path fill-rule="evenodd" clip-rule="evenodd" d="M32.0391 36.327C32.1725 35.8526 32.4427 35.428 32.816 35.1062C32.8388 35.4572 32.843 35.8092 32.8284 36.1607C32.5802 36.2722 32.3109 36.3289 32.0388 36.327H32.0391ZM33.3405 34.7782C33.6481 34.8913 33.9469 35.0275 34.2342 35.1852C33.9569 35.4628 33.667 35.7214 33.3712 35.9747C33.3408 35.5738 33.3408 35.173 33.3408 34.7785L33.3405 34.7782ZM32.9331 32.9864C33.5806 33.3624 34.0614 33.9546 34.6035 34.4602C34.9734 34.7685 34.9243 35.3234 34.7885 35.7358C34.4681 36.3526 33.6788 36.4018 33.2348 36.8825C33.3045 36.9163 33.3817 36.9323 33.4591 36.9291C33.5366 36.9259 33.6119 36.9036 33.6787 36.8643C34.1534 36.6544 34.6036 36.3836 35.0722 36.1616C35.0981 36.5579 35.096 36.9556 35.0661 37.3517C32.7599 38.4058 30.4787 39.5156 28.1722 40.5709C28.1658 40.2751 28.1658 39.9851 28.1783 39.6902C29.7195 38.9504 31.2735 38.2228 32.8273 37.489C32.8212 37.3165 32.8148 37.1376 32.8212 36.9588C32.4197 37.1109 31.9759 37.1086 31.576 36.9524C31.2799 36.7243 31.2984 36.311 31.3725 35.9842C31.6336 35.1785 32.1165 34.4627 32.7659 33.919C32.7934 33.6043 32.849 33.2927 32.9322 32.9879L32.9331 32.9864Z" fill="#231F20"/>
<path fill-rule="evenodd" clip-rule="evenodd" d="M22.4025 35.2497C23.0251 35.0338 23.654 35.4346 24.0859 35.854C24.3616 36.1042 24.5586 36.4293 24.6527 36.7895C24.7469 37.1498 24.7342 37.5296 24.6162 37.8827C24.4743 38.2341 24.0859 38.3634 23.7716 38.5177C22.9212 38.8876 22.0882 39.3132 21.2251 39.6718C21.2066 39.3696 21.2066 39.0737 21.2129 38.7716C22.0575 38.3522 22.9209 37.9637 23.784 37.5692C23.9536 37.49 24.1129 37.3908 24.2587 37.2735C24.2095 37.1752 24.16 37.0761 24.1047 36.9774C23.4818 37.1378 22.9455 37.5201 22.323 37.6619C22.1913 37.6964 22.0513 37.6774 21.9335 37.6091C21.8157 37.5409 21.7296 37.4288 21.694 37.2974C21.4598 36.5761 21.6569 35.5968 22.4031 35.2503L22.4025 35.2497ZM22.1495 36.7986C22.1707 36.6498 22.2301 36.5091 22.322 36.3902C22.4139 36.2713 22.5351 36.1782 22.6737 36.1203C22.9264 35.9846 23.1855 36.145 23.4199 36.2315C23.0112 36.4518 22.5866 36.6415 22.1498 36.7989L22.1495 36.7986Z" fill="#231F20"/>
<path fill-rule="evenodd" clip-rule="evenodd" d="M26.3296 38.856C26.6749 38.1271 27.3591 37.6539 27.9088 37.0863C28.1989 37.3575 28.4885 37.6227 28.7591 37.9125C28.1465 38.3158 27.4826 38.6352 26.7851 38.8621C26.6365 38.9092 26.4767 38.907 26.3296 38.8557V38.856ZM27.4456 35.6559C28.0927 36.0383 28.5996 36.6177 29.1411 37.1237C29.4679 37.3828 29.4003 37.8262 29.3632 38.184C29.277 38.5724 28.8885 38.77 28.5678 38.9361C28.0135 39.2374 27.4337 39.4892 26.8352 39.6887C26.3545 39.8183 25.7811 39.436 25.8424 38.9294C25.9032 37.9552 26.632 37.209 27.2914 36.543C27.3211 36.2438 27.3725 35.9471 27.4453 35.6553L27.4456 35.6559Z" fill="#231F20"/>
<path fill-rule="evenodd" clip-rule="evenodd" d="M23.804 28.3815C22.5873 28.8332 21.5026 29.454 20.1539 29.7253C17.2199 30.5143 16.4124 29.3576 19.1539 26.1826C23.1544 22.0678 28.0889 19.1697 32.4147 17.296C34.9754 16.3924 36.4505 16.6996 35.5899 18.6638C34.5718 20.706 32.6559 22.1461 31.2098 23.6765C31.252 23.7008 31.2941 23.7187 31.3362 23.7427C32.9684 22.2426 35.0658 20.6565 36.4635 18.5433C38.2348 15.9767 37.6803 14.1631 32.7583 15.8258C29.8361 16.7838 27.0226 18.3744 24.0281 20.4528C21.6902 22.0028 19.5706 23.8592 17.7262 25.9725C13.9666 30.3645 15.8269 31.666 19.0093 30.7206C20.8519 30.1354 22.5929 29.4659 23.804 28.3815Z" fill="#FCA61D"/>
<path fill-rule="evenodd" clip-rule="evenodd" d="M16.4903 27.5985L16.3938 27.7434C15.919 28.111 15.5083 28.4119 14.9418 28.871C13.0862 30.3414 13.6162 31.6307 17.8277 31.6307C22.9319 31.2814 27.9797 29.5586 32.0464 27.5582C34.6733 26.0521 35.4083 24.9675 34.3181 24.2443C33.372 23.7143 32.3118 23.7929 31.3357 23.7443L31.5708 23.5276C32.607 23.5036 36.6619 23.4851 36.8485 24.8413C36.9568 25.6185 36.1496 26.8774 32.9017 28.498C30.5134 29.6793 28.0255 30.6471 25.4668 31.3902C22.4778 32.274 19.3837 32.7522 16.2674 32.8122C10.3388 32.6496 11.6522 30.5649 13.8696 28.9683C14.6763 28.3938 15.5581 27.9329 16.4903 27.5985Z" fill="white"/>
</svg>
