<svg width="32" height="32" viewBox="0 0 32 32" fill="none" xmlns="http://www.w3.org/2000/svg">
<mask id="mask0_1_518" style="mask-type:alpha" maskUnits="userSpaceOnUse" x="0" y="0" width="32" height="32">
<rect width="32" height="32" fill="#D9D9D9"/>
</mask>
<g mask="url(#mask0_1_518)">
<path fill-rule="evenodd" clip-rule="evenodd" d="M11.4313 21.6963C11.7098 21.5799 11.9883 21.4634 12.2668 21.353C12.2927 22.8103 12.2863 24.2744 12.2927 25.7317C12.2796 26.4505 12.0595 27.2732 11.3598 27.6685C10.7122 27.9793 10.032 28.2448 9.35855 28.5233C8.63307 28.8991 7.64857 29.4236 6.88448 28.7303C6.43114 27.8622 6.69017 26.5672 7.61633 26.0618C8.53135 25.6151 9.47228 25.2236 10.434 24.8891C10.4523 25.2065 10.4479 25.5247 10.421 25.8414C9.5854 26.3015 8.71093 26.6639 7.86869 27.0981C7.72515 27.1596 7.59846 27.2547 7.49926 27.3754C7.40006 27.496 7.33121 27.6387 7.29854 27.7914C7.31162 28.575 8.35456 28.1602 8.73006 27.9854C9.4683 27.5901 10.2394 27.2598 10.9776 26.8713C11.1227 26.7944 11.2423 26.677 11.3216 26.5332C11.4009 26.3895 11.4366 26.2256 11.4243 26.0618C11.4374 24.6045 11.4176 23.1537 11.4307 21.696L11.4313 21.6963Z" fill="#231F20"/>
<path fill-rule="evenodd" clip-rule="evenodd" d="M16.3528 21.6897C16.6209 21.5525 16.8981 21.4334 17.1823 21.3333C17.2142 23.088 17.189 24.8426 17.1957 26.5996C16.9235 26.7418 16.6453 26.8651 16.3601 26.9825C16.3342 25.2208 16.3534 23.4524 16.3534 21.6907L16.3528 21.6897Z" fill="#231F20"/>
<path fill-rule="evenodd" clip-rule="evenodd" d="M21.5274 21.6962C21.7998 21.573 22.0781 21.4565 22.3633 21.3529C22.3828 23.0626 22.3566 24.7665 22.3761 26.4766C22.1003 26.6229 21.812 26.7442 21.5146 26.8392C21.5082 25.1228 21.4757 23.4062 21.5274 21.6962Z" fill="#231F20"/>
<path fill-rule="evenodd" clip-rule="evenodd" d="M23.7175 24.8753C23.8577 24.377 24.1415 23.9309 24.5336 23.5928C24.5576 23.9616 24.562 24.3314 24.5467 24.7006C24.286 24.8177 24.0031 24.8773 23.7172 24.8753H23.7175ZM25.0846 23.2482C25.4078 23.3671 25.7216 23.5101 26.0235 23.6759C25.7322 23.9675 25.4276 24.2391 25.1169 24.5052C25.085 24.0841 25.0849 23.663 25.0849 23.2486L25.0846 23.2482ZM24.6567 21.366C25.3369 21.7609 25.8419 22.3831 26.4114 22.9143C26.8 23.2381 26.7484 23.821 26.6058 24.2543C26.2692 24.9022 25.44 24.9539 24.9736 25.4589C25.0469 25.4943 25.1279 25.5111 25.2093 25.5078C25.2906 25.5045 25.3698 25.4811 25.44 25.4397C25.9386 25.2193 26.4115 24.9347 26.9038 24.7015C26.931 25.1179 26.9288 25.5357 26.8974 25.9518C24.4747 27.0591 22.0784 28.2249 19.6553 29.3336C19.6486 29.0228 19.6486 28.7182 19.6617 28.4084C21.2808 27.6312 22.9133 26.8668 24.5455 26.096C24.5391 25.9148 24.5324 25.7269 24.5391 25.539C24.1173 25.6988 23.6512 25.6964 23.231 25.5323C22.92 25.2927 22.9395 24.8585 23.0173 24.5152C23.2915 23.6688 23.7988 22.9168 24.481 22.3457C24.5099 22.015 24.5684 21.6877 24.6558 21.3675L24.6567 21.366Z" fill="#231F20"/>
<path fill-rule="evenodd" clip-rule="evenodd" d="M13.5935 23.7431C14.2475 23.5162 14.9083 23.9373 15.3619 24.3779C15.6516 24.6407 15.8585 24.9822 15.9574 25.3607C16.0563 25.7391 16.043 26.1381 15.919 26.5091C15.77 26.8782 15.3619 27.014 15.0317 27.1761C14.1385 27.5647 13.2633 28.0117 12.3567 28.3885C12.3372 28.0711 12.3372 27.7602 12.3439 27.4428C13.2311 27.0022 14.1381 26.5942 15.0448 26.1797C15.2229 26.0965 15.3903 25.9923 15.5435 25.8691C15.4918 25.7658 15.4398 25.6617 15.3817 25.558C14.7274 25.7265 14.164 26.1281 13.51 26.2771C13.3716 26.3133 13.2245 26.2933 13.1008 26.2216C12.9771 26.1499 12.8866 26.0322 12.8492 25.8942C12.6032 25.1365 12.8103 24.1077 13.5942 23.7437L13.5935 23.7431ZM13.3278 25.3702C13.35 25.2139 13.4124 25.066 13.5089 24.9412C13.6055 24.8163 13.7328 24.7185 13.8784 24.6576C14.1439 24.515 14.416 24.6835 14.6623 24.7745C14.2329 25.0059 13.7869 25.2051 13.3281 25.3705L13.3278 25.3702Z" fill="#231F20"/>
<path fill-rule="evenodd" clip-rule="evenodd" d="M17.7197 27.5323C18.0825 26.7666 18.8013 26.2695 19.3788 25.6732C19.6835 25.9581 19.9877 26.2367 20.272 26.5411C19.6285 26.9648 18.931 27.3003 18.1983 27.5387C18.0422 27.5881 17.8744 27.5858 17.7197 27.532V27.5323ZM18.8921 24.1706C19.572 24.5723 20.1045 25.181 20.6733 25.7125C21.0166 25.9846 20.9456 26.4505 20.9066 26.8263C20.816 27.2343 20.408 27.4419 20.0711 27.6164C19.4888 27.9329 18.8797 28.1975 18.2509 28.407C17.7459 28.5432 17.1436 28.1415 17.208 27.6094C17.2718 26.5859 18.0375 25.8021 18.7301 25.1025C18.7613 24.7881 18.8153 24.4765 18.8918 24.17L18.8921 24.1706Z" fill="#231F20"/>
<path fill-rule="evenodd" clip-rule="evenodd" d="M15.068 16.5291C13.7899 17.0035 12.6505 17.6557 11.2336 17.9406C8.1514 18.7696 7.30319 17.5544 10.1831 14.2191C14.3857 9.89645 19.5693 6.85196 24.1136 4.88362C26.8036 3.93437 28.3533 4.25706 27.4492 6.32048C26.3796 8.46589 24.367 9.97873 22.8479 11.5864C22.8922 11.6119 22.9364 11.6307 22.9807 11.6559C24.6953 10.0801 26.8986 8.41383 28.3669 6.19391C30.2277 3.49765 29.6451 1.59253 24.4746 3.33922C21.4048 4.34552 18.4492 6.01647 15.3034 8.19992C12.8475 9.82812 10.6209 11.7783 8.68326 13.9984C4.7338 18.6121 6.6881 19.9794 10.0312 18.9862C11.9668 18.3715 13.7958 17.6682 15.068 16.5291Z" fill="#FCA61D"/>
<path fill-rule="evenodd" clip-rule="evenodd" d="M7.38366 15.706L7.28236 15.8582C6.78357 16.2444 6.3521 16.5605 5.75698 17.0428C3.80766 18.5874 4.36442 19.9419 8.78867 19.9419C14.1506 19.575 19.4533 17.7651 23.7255 15.6637C26.485 14.0816 27.2572 12.9422 26.1119 12.1824C25.118 11.6257 24.0042 11.7083 22.9789 11.6571L23.2258 11.4296C24.3144 11.4043 28.574 11.3849 28.7701 12.8096C28.8839 13.626 28.0359 14.9485 24.6239 16.6509C22.1151 17.8919 19.5015 18.9086 16.8136 19.6892C13.6736 20.6176 10.4232 21.1201 7.14955 21.1831C0.921559 21.0122 2.30131 18.8222 4.63064 17.145C5.47806 16.5415 6.40441 16.0573 7.38366 15.706Z" fill="#52C5CC"/>
</g>
</svg>
