<svg width="48" height="48" viewBox="0 0 48 48" fill="none" xmlns="http://www.w3.org/2000/svg">
<path d="M40.4794 10.2005L33.606 3.45375C32.6567 2.522 31.3797 2 30.0496 2L12.7692 2C9.03069 2 6 5.03069 6 8.76923L6 39.2308C6 42.9693 9.03069 46 12.7692 46H35.2308C38.9693 46 42 42.9693 42 39.2308V13.8237C42 12.4608 41.4521 11.1552 40.4794 10.2005Z" fill="#E0E0E0"/>
<path fill-rule="evenodd" clip-rule="evenodd" d="M32.0586 24.0001C33.3781 24.0072 34.666 24.4049 35.7596 25.1433C36.8533 25.8816 37.7038 26.9274 38.2037 28.1486C38.7036 29.3698 38.8305 30.7116 38.5685 32.0049C38.3065 33.2982 37.6673 34.4849 36.7315 35.4153C35.7957 36.3456 34.6054 36.978 33.3106 37.2324C32.0158 37.4869 30.6746 37.352 29.4563 36.845C28.238 36.338 27.1973 35.4815 26.4654 34.3835C25.7334 33.2856 25.3431 31.9953 25.3438 30.6758C25.3503 28.9005 26.0612 27.2003 27.3202 25.9487C28.5791 24.6971 30.2833 23.9963 32.0586 24.0001ZM31.459 25.5021C32.4735 25.4975 33.4665 25.7942 34.3122 26.3546C35.1579 26.915 35.8184 27.7137 36.2096 28.6497C36.6009 29.5857 36.7055 30.6168 36.5101 31.6124C36.3148 32.6079 35.8282 33.523 35.1122 34.2418C34.3962 34.9606 33.483 35.4506 32.4882 35.6498C31.4934 35.849 30.462 35.7484 29.5244 35.3608C28.5869 34.9731 27.7855 34.3159 27.2219 33.4724C26.6583 32.6288 26.3577 31.6369 26.3584 30.6224C26.3568 29.9512 26.4874 29.2862 26.7429 28.6655C26.9984 28.0448 27.3737 27.4805 27.8474 27.005C28.3212 26.5294 28.8839 26.1519 29.5036 25.8941C30.1233 25.6362 30.7877 25.5031 31.459 25.5021Z" fill="white"/>
<path fill-rule="evenodd" clip-rule="evenodd" d="M31.4854 25.641C32.4706 25.641 33.4337 25.9333 34.2529 26.4807C35.0721 27.0281 35.7106 27.8062 36.0876 28.7165C36.4646 29.6268 36.5632 30.6284 36.3709 31.5948C36.1787 32.5611 35.7043 33.4487 35.0076 34.1453C34.3109 34.842 33.4232 35.3164 32.4569 35.5086C31.4905 35.7008 30.4889 35.6021 29.5786 35.225C28.6684 34.848 27.8904 34.2096 27.343 33.3903C26.7956 32.5711 26.5034 31.6079 26.5034 30.6226C26.505 29.3018 27.0304 28.0357 27.9643 27.1018C28.8983 26.1678 30.1646 25.6425 31.4854 25.641ZM32.0125 27.0445C34.075 27.0445 35.7486 28.6262 35.7486 30.5768C35.7486 32.5274 34.075 34.1023 32.0125 34.1023C29.95 34.1023 28.276 32.5274 28.276 30.5768C28.276 28.6262 29.9497 27.0445 32.0125 27.0445Z" fill="url(#paint0_linear_1_367)"/>
<path fill-rule="evenodd" clip-rule="evenodd" d="M22.8913 27.1568C22.8864 27.0828 22.8969 27.0087 22.9224 26.9391C22.9479 26.8694 22.9876 26.8059 23.0391 26.7525C23.0906 26.6991 23.1527 26.657 23.2214 26.6291C23.2901 26.6011 23.3639 26.5879 23.438 26.5901C23.5306 26.5838 23.7279 26.5838 23.8071 26.5838C23.7937 27.5457 23.8268 28.488 23.8138 29.4499C23.7757 29.8611 23.6034 30.2484 23.3236 30.5521C23.0437 30.8558 22.6717 31.0589 22.265 31.1305C22.2586 30.8402 22.278 30.4779 22.2716 30.188C22.5844 29.9861 22.8048 29.6688 22.8846 29.3052C22.8849 28.6275 22.8913 27.8365 22.8913 27.1568Z" fill="white"/>
<path fill-rule="evenodd" clip-rule="evenodd" d="M19.5114 27.2234C19.5114 26.7554 19.7552 26.584 20.0648 26.5907L20.4536 26.5974V27.9881C20.421 28.3348 20.2789 28.6621 20.0479 28.9227C19.8169 29.1833 19.509 29.3637 19.1687 29.4377C18.3384 29.563 17.6794 29.3124 17.4289 29.0158C17.1816 29.2707 16.8478 29.4237 16.4933 29.4444L15.0895 29.4644C14.8196 29.4675 14.5508 29.4296 14.2923 29.3522C14.297 29.528 14.2925 29.704 14.2789 29.8793C14.2259 30.2147 14.0584 30.5213 13.805 30.7473C13.5515 30.9733 13.2277 31.1047 12.8885 31.1191L11.498 31.1321C11.0797 31.1094 10.6874 30.922 10.4071 30.6107C10.1267 30.2995 9.98102 29.8898 10.002 29.4714C10.0087 29.0365 9.99563 28.6611 10.002 28.2193C10.0013 28.0778 10.0549 27.9415 10.1519 27.8385C10.2488 27.7355 10.3815 27.6738 10.5227 27.6659H10.9248L10.9315 29.4186C10.9252 29.6189 10.9975 29.8139 11.133 29.9616C11.2684 30.1093 11.4562 30.1982 11.6563 30.2093C12.0187 30.2093 12.2164 30.216 12.5782 30.216C12.6804 30.2173 12.7819 30.1982 12.8767 30.1601C12.9716 30.122 13.058 30.0656 13.1309 29.9939C13.2038 29.9222 13.2618 29.8368 13.3015 29.7426C13.3413 29.6484 13.362 29.5473 13.3624 29.445C13.336 27.8896 13.3758 26.4334 13.3561 24.8786C13.3504 24.8025 13.3603 24.726 13.385 24.6539C13.4098 24.5817 13.4489 24.5153 13.4999 24.4586C13.551 24.4019 13.613 24.3561 13.6823 24.324C13.7515 24.292 13.8266 24.2743 13.9029 24.272H14.3046V27.737C14.2986 27.8367 14.3125 27.9367 14.3455 28.031C14.3784 28.1253 14.4299 28.2121 14.4967 28.2863C14.5636 28.3605 14.6446 28.4207 14.735 28.4633C14.8253 28.5058 14.9233 28.53 15.0231 28.5344C15.491 28.541 15.7809 28.5344 16.2489 28.541C16.4191 28.542 16.5843 28.483 16.7156 28.3746C16.8469 28.2662 16.936 28.1152 16.9673 27.9478C16.974 27.6184 16.9606 27.3814 16.9673 27.0577C16.9828 26.9264 17.0442 26.8047 17.1406 26.7142C17.2371 26.6238 17.3623 26.5702 17.4944 26.5631C17.5999 26.5631 17.7843 26.55 17.9095 26.55C17.9028 26.9518 17.9095 27.3803 17.9028 27.7624C17.8913 27.9205 17.9341 28.0779 18.0239 28.2084C18.1138 28.3389 18.2454 28.435 18.3972 28.4806C18.5819 28.4873 18.7005 28.4873 18.8718 28.4873C19.0304 28.4807 19.1816 28.4182 19.2986 28.3108C19.4156 28.2035 19.4909 28.0582 19.5111 27.9007C19.5181 27.6185 19.5114 27.2234 19.5114 27.2234Z" fill="white"/>
<path fill-rule="evenodd" clip-rule="evenodd" d="M21.1918 24.8118C21.1875 24.7382 21.1986 24.6645 21.2244 24.5955C21.2502 24.5265 21.2901 24.4637 21.3416 24.411C21.393 24.3582 21.4549 24.3168 21.5232 24.2893C21.5916 24.2618 21.6649 24.2488 21.7385 24.2513H22.1076C22.0946 25.1935 22.134 28.4884 22.121 29.4309H21.1721C21.1721 28.7589 21.1918 25.4838 21.1918 24.8118Z" fill="white"/>
<path fill-rule="evenodd" clip-rule="evenodd" d="M16.9868 25.7735L17.8963 25.7602V24.7986H17.5466C17.2106 24.7986 16.9798 24.9576 16.9865 25.3257L16.9868 25.7735Z" fill="white"/>
<path fill-rule="evenodd" clip-rule="evenodd" d="M20.1107 30.1619L19.2012 30.1686V31.1308H19.5509C19.8866 31.1308 20.111 30.9719 20.1043 30.6105L20.1107 30.1619Z" fill="white"/>
<path fill-rule="evenodd" clip-rule="evenodd" d="M18.958 30.1623L18.0485 30.169V31.1312H18.4041C18.7402 31.1312 18.9643 30.9724 18.9576 30.6109L18.958 30.1623Z" fill="white"/>
<path fill-rule="evenodd" clip-rule="evenodd" d="M15.8403 25.7735L16.7498 25.7602V24.7986H16.4001C16.0641 24.7986 15.8333 24.9576 15.84 25.3257L15.8403 25.7735Z" fill="white"/>
<path fill-rule="evenodd" clip-rule="evenodd" d="M12.8429 33.2951H13.4638V32.6284H13.2258C13.1756 32.6212 13.1244 32.6254 13.0761 32.6409C13.0278 32.6563 12.9835 32.6825 12.9468 32.7174C12.91 32.7523 12.8816 32.7951 12.8638 32.8426C12.8459 32.8901 12.8389 32.9411 12.8435 32.9916L12.8429 33.2951Z" fill="white"/>
<path fill-rule="evenodd" clip-rule="evenodd" d="M10.0087 36.1795H10.6216V34.6765C10.7342 34.6529 10.8514 34.6643 10.9574 34.7091C11.0634 34.7539 11.1532 34.8301 11.2147 34.9273C11.4579 35.3029 11.6133 35.7286 11.6693 36.1725H12.4142C12.1767 35.3422 12.0384 34.8019 11.4849 34.4264C11.8664 34.4331 12.1506 34.0175 12.1636 33.6157C12.1757 33.4953 12.1624 33.3737 12.1244 33.2589C12.0865 33.144 12.0248 33.0384 11.9433 32.9489C11.8619 32.8594 11.7626 32.7881 11.6518 32.7395C11.541 32.6909 11.4212 32.6662 11.3003 32.6669H10.4766C10.1587 32.6669 10.0154 32.8383 10.0023 33.1676L10.0087 36.1795ZM10.6216 34.1562V33.2343L11.0698 33.2277C11.1278 33.2276 11.1852 33.2392 11.2385 33.262C11.2918 33.2847 11.3399 33.318 11.38 33.3599C11.42 33.4018 11.4512 33.4515 11.4714 33.5058C11.4917 33.5601 11.5007 33.6179 11.498 33.6758C11.5037 33.7349 11.4974 33.7946 11.4794 33.8512C11.4614 33.9078 11.4321 33.9602 11.3933 34.0052C11.3545 34.0501 11.3069 34.0867 11.2536 34.1127C11.2002 34.1388 11.1422 34.1538 11.0828 34.1568L10.6216 34.1562Z" fill="white"/>
<path fill-rule="evenodd" clip-rule="evenodd" d="M15.3267 35.9555C15.2524 36.0396 15.1601 36.1059 15.0566 36.1494C14.9532 36.1929 14.8412 36.2125 14.7292 36.2068C14.6171 36.2011 14.5078 36.1701 14.4093 36.1163C14.3108 36.0625 14.2257 35.9873 14.1603 35.8961C13.8373 35.5403 13.8771 34.5057 14.0482 34.0972C14.0893 33.9716 14.1639 33.8596 14.2642 33.7734C14.3645 33.6873 14.4865 33.6303 14.6169 33.6086C14.7473 33.5869 14.8811 33.6012 15.0039 33.6502C15.1267 33.6992 15.2337 33.7809 15.3133 33.8864C15.4914 33.5898 15.7088 33.6423 15.979 33.6423L15.9723 36.4035C15.9857 36.97 15.6032 37.2935 14.9576 37.2598C14.6067 37.2208 14.2655 37.1206 13.9493 36.9637C14.0151 36.7987 14.0812 36.6273 14.14 36.455C14.3216 36.5401 14.5087 36.6129 14.7001 36.6728C14.9967 36.7453 15.313 36.7452 15.326 36.3301L15.3267 35.9555ZM14.9576 34.1697C15.175 34.1697 15.3531 34.512 15.3531 34.9275C15.3531 35.3493 15.175 35.6854 14.9576 35.6854C14.7465 35.6854 14.5688 35.3493 14.5688 34.9275C14.5692 34.5123 14.7468 34.17 14.9576 34.17V34.1697Z" fill="white"/>
<path fill-rule="evenodd" clip-rule="evenodd" d="M20.0182 36.1791L19.3592 36.1725L19.3659 33.2534L18.5355 33.2664L18.5422 32.6865H20.4861C20.8676 32.6932 20.8675 32.9702 20.8675 33.247H20.0242L20.0182 36.1791Z" fill="white"/>
<path fill-rule="evenodd" clip-rule="evenodd" d="M21.3704 35.0851C21.7922 35.0784 22.2665 35.0918 22.695 35.0851C22.7304 34.7205 22.6715 34.3527 22.5237 34.0175C22.428 33.8889 22.3026 33.7853 22.1583 33.7153C22.0139 33.6453 21.8549 33.6111 21.6946 33.6156C21.5342 33.6202 21.3774 33.6632 21.2373 33.7412C21.0971 33.8192 20.9778 33.9298 20.8894 34.0636C20.6743 34.5659 20.6578 35.1312 20.8433 35.6451C20.9185 35.807 21.036 35.9455 21.1833 36.0462C21.3306 36.1469 21.5023 36.2061 21.6803 36.2174C22.0372 36.2393 22.393 36.1617 22.7084 35.9933C22.6292 35.8026 22.5698 35.6436 22.491 35.4595C21.9963 35.7504 21.3771 35.8163 21.3704 35.0851ZM21.377 34.6896H22.0624C22.0691 34.4525 22.0625 34.1358 21.7328 34.1294C21.3968 34.1294 21.3637 34.4588 21.377 34.689V34.6896Z" fill="white"/>
<path fill-rule="evenodd" clip-rule="evenodd" d="M16.5989 32.9167C16.5929 32.8087 16.6294 32.7026 16.7007 32.6212C16.7721 32.5398 16.8725 32.4897 16.9804 32.4815C17.0398 32.4815 17.1781 32.4748 17.2242 32.4748L17.2309 33.8586C17.6 33.5089 18.4707 33.4371 18.4961 34.2938L18.4894 36.1652L17.8899 36.1719V34.3989C17.8899 33.918 17.2242 34.1421 17.2309 34.5309L17.2376 36.1719H16.5989V32.9167Z" fill="white"/>
<path fill-rule="evenodd" clip-rule="evenodd" d="M12.8423 33.8995C12.8577 33.8109 12.905 33.7311 12.9754 33.6752C13.0457 33.6193 13.1341 33.5912 13.2238 33.5962H13.4743V36.1663L12.8484 36.1727C12.849 35.8366 12.8423 34.2355 12.8423 33.8995Z" fill="white"/>
<path fill-rule="evenodd" clip-rule="evenodd" d="M23.1692 32.904C23.1657 32.8504 23.1727 32.7964 23.19 32.7455C23.2072 32.6946 23.2343 32.6476 23.2697 32.6072C23.3052 32.5668 23.3482 32.5338 23.3964 32.5101C23.4446 32.4863 23.4971 32.4722 23.5507 32.4688H23.7949L23.8015 36.1655L23.1689 36.1722L23.1692 32.904Z" fill="white"/>
<defs>
<linearGradient id="paint0_linear_1_367" x1="27.7015" y1="29.9234" x2="39.5477" y2="30.7695" gradientUnits="userSpaceOnUse">
<stop stop-color="white"/>
<stop offset="1" stop-color="white" stop-opacity="0"/>
</linearGradient>
</defs>
</svg>
