<svg width="48" height="48" viewBox="0 0 48 48" fill="none" xmlns="http://www.w3.org/2000/svg">
<path d="M40.4794 10.2005L33.606 3.45375C32.6567 2.522 31.3797 2 30.0496 2L12.7692 2C9.03069 2 6 5.03069 6 8.76923L6 39.2308C6 42.9693 9.03069 46 12.7692 46H35.2308C38.9693 46 42 42.9693 42 39.2308V13.8237C42 12.4608 41.4521 11.1552 40.4794 10.2005Z" fill="#9C0E74"/>
<path fill-rule="evenodd" clip-rule="evenodd" d="M32.0586 24.0001C33.3781 24.0072 34.666 24.4049 35.7596 25.1433C36.8533 25.8816 37.7038 26.9274 38.2037 28.1486C38.7036 29.3698 38.8305 30.7116 38.5685 32.0049C38.3065 33.2982 37.6673 34.4849 36.7315 35.4153C35.7957 36.3456 34.6054 36.978 33.3106 37.2324C32.0158 37.4869 30.6746 37.352 29.4563 36.845C28.238 36.338 27.1973 35.4815 26.4654 34.3835C25.7334 33.2856 25.3431 31.9953 25.3438 30.6758C25.3503 28.9005 26.0612 27.2003 27.3202 25.9487C28.5791 24.6971 30.2833 23.9963 32.0586 24.0001ZM31.459 25.5021C32.4735 25.4975 33.4665 25.7942 34.3122 26.3546C35.1579 26.915 35.8184 27.7137 36.2096 28.6497C36.6009 29.5857 36.7055 30.6168 36.5101 31.6124C36.3148 32.6079 35.8282 33.523 35.1122 34.2418C34.3962 34.9606 33.483 35.4506 32.4882 35.6498C31.4934 35.849 30.462 35.7484 29.5244 35.3608C28.5869 34.9731 27.7855 34.3159 27.2219 33.4724C26.6583 32.6288 26.3577 31.6369 26.3584 30.6224C26.3568 29.9512 26.4874 29.2862 26.7429 28.6655C26.9984 28.0448 27.3737 27.4805 27.8474 27.005C28.3212 26.5294 28.8839 26.1519 29.5036 25.8941C30.1233 25.6362 30.7877 25.5031 31.459 25.5021Z" fill="white"/>
<path fill-rule="evenodd" clip-rule="evenodd" d="M31.4854 25.641C32.4706 25.641 33.4337 25.9333 34.2529 26.4807C35.0721 27.0281 35.7106 27.8062 36.0876 28.7165C36.4646 29.6268 36.5632 30.6284 36.3709 31.5948C36.1787 32.5611 35.7043 33.4487 35.0076 34.1453C34.3109 34.842 33.4232 35.3164 32.4569 35.5086C31.4905 35.7008 30.4889 35.6021 29.5786 35.225C28.6684 34.848 27.8904 34.2096 27.343 33.3903C26.7956 32.5711 26.5034 31.6079 26.5034 30.6226C26.505 29.3018 27.0304 28.0357 27.9643 27.1018C28.8983 26.1678 30.1646 25.6425 31.4854 25.641ZM32.0125 27.0445C34.075 27.0445 35.7486 28.6262 35.7486 30.5768C35.7486 32.5274 34.075 34.1023 32.0125 34.1023C29.95 34.1023 28.276 32.5274 28.276 30.5768C28.276 28.6262 29.9497 27.0445 32.0125 27.0445Z" fill="url(#paint0_linear_1_317)"/>
<path fill-rule="evenodd" clip-rule="evenodd" d="M22.8913 27.1568C22.8864 27.0828 22.8969 27.0087 22.9224 26.9391C22.9479 26.8694 22.9876 26.8059 23.0391 26.7525C23.0906 26.6991 23.1527 26.657 23.2214 26.6291C23.2901 26.6011 23.3639 26.5879 23.438 26.5901C23.5306 26.5838 23.7279 26.5838 23.8071 26.5838C23.7937 27.5457 23.8268 28.488 23.8138 29.4499C23.7757 29.8611 23.6034 30.2484 23.3236 30.5521C23.0437 30.8558 22.6717 31.0589 22.265 31.1305C22.2586 30.8402 22.278 30.4779 22.2716 30.188C22.5844 29.9861 22.8048 29.6688 22.8846 29.3052C22.8849 28.6275 22.8913 27.8365 22.8913 27.1568Z" fill="white"/>
<path fill-rule="evenodd" clip-rule="evenodd" d="M19.5114 27.2234C19.5114 26.7554 19.7552 26.584 20.0648 26.5907L20.4536 26.5974V27.9881C20.421 28.3348 20.2789 28.6621 20.0479 28.9227C19.8169 29.1833 19.509 29.3637 19.1687 29.4377C18.3384 29.563 17.6794 29.3124 17.4289 29.0158C17.1816 29.2707 16.8478 29.4237 16.4933 29.4444L15.0895 29.4644C14.8196 29.4675 14.5508 29.4296 14.2923 29.3522C14.297 29.528 14.2925 29.704 14.2789 29.8793C14.2259 30.2147 14.0584 30.5213 13.805 30.7473C13.5515 30.9733 13.2277 31.1047 12.8885 31.1191L11.498 31.1321C11.0797 31.1094 10.6874 30.922 10.4071 30.6107C10.1267 30.2995 9.98102 29.8898 10.002 29.4714C10.0087 29.0365 9.99563 28.6611 10.002 28.2193C10.0013 28.0778 10.0549 27.9415 10.1519 27.8385C10.2488 27.7355 10.3815 27.6738 10.5227 27.6659H10.9248L10.9315 29.4186C10.9252 29.6189 10.9975 29.8139 11.133 29.9616C11.2684 30.1093 11.4562 30.1982 11.6563 30.2093C12.0187 30.2093 12.2164 30.216 12.5782 30.216C12.6804 30.2173 12.7819 30.1982 12.8767 30.1601C12.9716 30.122 13.058 30.0656 13.1309 29.9939C13.2038 29.9222 13.2618 29.8368 13.3015 29.7426C13.3413 29.6484 13.362 29.5473 13.3624 29.445C13.336 27.8896 13.3758 26.4334 13.3561 24.8786C13.3504 24.8025 13.3603 24.726 13.385 24.6539C13.4098 24.5817 13.4489 24.5153 13.4999 24.4586C13.551 24.4019 13.613 24.3561 13.6823 24.324C13.7515 24.292 13.8266 24.2743 13.9029 24.272H14.3046V27.737C14.2986 27.8367 14.3125 27.9367 14.3455 28.031C14.3784 28.1253 14.4299 28.2121 14.4967 28.2863C14.5636 28.3605 14.6446 28.4207 14.735 28.4633C14.8253 28.5058 14.9233 28.53 15.0231 28.5344C15.491 28.541 15.7809 28.5344 16.2489 28.541C16.4191 28.542 16.5843 28.483 16.7156 28.3746C16.8469 28.2662 16.936 28.1152 16.9673 27.9478C16.974 27.6184 16.9606 27.3814 16.9673 27.0577C16.9828 26.9264 17.0442 26.8047 17.1406 26.7142C17.2371 26.6238 17.3623 26.5702 17.4944 26.5631C17.5999 26.5631 17.7843 26.55 17.9095 26.55C17.9028 26.9518 17.9095 27.3803 17.9028 27.7624C17.8913 27.9205 17.9341 28.0779 18.0239 28.2084C18.1138 28.3389 18.2454 28.435 18.3972 28.4806C18.5819 28.4873 18.7005 28.4873 18.8718 28.4873C19.0304 28.4807 19.1816 28.4182 19.2986 28.3108C19.4156 28.2035 19.4909 28.0582 19.5111 27.9007C19.5181 27.6185 19.5114 27.2234 19.5114 27.2234Z" fill="white"/>
<path fill-rule="evenodd" clip-rule="evenodd" d="M21.1918 24.8118C21.1876 24.7382 21.1987 24.6645 21.2245 24.5955C21.2503 24.5265 21.2902 24.4637 21.3416 24.411C21.3931 24.3582 21.455 24.3168 21.5233 24.2893C21.5916 24.2618 21.665 24.2488 21.7386 24.2513H22.1077C22.0947 25.1935 22.1341 28.4884 22.1211 29.4309H21.1721C21.1721 28.7589 21.1918 25.4838 21.1918 24.8118Z" fill="white"/>
<path fill-rule="evenodd" clip-rule="evenodd" d="M16.9868 25.7735L17.8963 25.7602V24.7986H17.5466C17.2106 24.7986 16.9798 24.9576 16.9865 25.3257L16.9868 25.7735Z" fill="white"/>
<path fill-rule="evenodd" clip-rule="evenodd" d="M20.1107 30.1619L19.2012 30.1686V31.1308H19.5509C19.8866 31.1308 20.111 30.9719 20.1043 30.6105L20.1107 30.1619Z" fill="white"/>
<path fill-rule="evenodd" clip-rule="evenodd" d="M18.9581 30.1623L18.0486 30.169V31.1312H18.4043C18.7403 31.1312 18.9644 30.9724 18.9577 30.6109L18.9581 30.1623Z" fill="white"/>
<path fill-rule="evenodd" clip-rule="evenodd" d="M15.8403 25.7735L16.7498 25.7602V24.7986H16.4001C16.0641 24.7986 15.8333 24.9576 15.84 25.3257L15.8403 25.7735Z" fill="white"/>
<path fill-rule="evenodd" clip-rule="evenodd" d="M12.843 33.2951H13.4639V32.6284H13.2259C13.1757 32.6212 13.1245 32.6254 13.0762 32.6409C13.0279 32.6563 12.9837 32.6825 12.9469 32.7174C12.9101 32.7523 12.8818 32.7951 12.8639 32.8426C12.846 32.8901 12.8391 32.9411 12.8437 32.9916L12.843 33.2951Z" fill="white"/>
<path fill-rule="evenodd" clip-rule="evenodd" d="M10.0088 36.1795H10.6217V34.6765C10.7343 34.6529 10.8515 34.6643 10.9575 34.7091C11.0635 34.7539 11.1533 34.8301 11.2149 34.9273C11.458 35.3029 11.6134 35.7286 11.6695 36.1725H12.4143C12.1768 35.3422 12.0385 34.8019 11.4851 34.4264C11.8665 34.4331 12.1507 34.0175 12.1638 33.6157C12.1758 33.4953 12.1625 33.3737 12.1245 33.2589C12.0866 33.144 12.0249 33.0384 11.9435 32.9489C11.862 32.8594 11.7627 32.7881 11.6519 32.7395C11.5411 32.6909 11.4214 32.6662 11.3004 32.6669H10.4767C10.1588 32.6669 10.0155 32.8383 10.0024 33.1676L10.0088 36.1795ZM10.6217 34.1562V33.2343L11.0699 33.2277C11.1279 33.2276 11.1853 33.2392 11.2386 33.262C11.2919 33.2847 11.3401 33.318 11.3801 33.3599C11.4201 33.4018 11.4513 33.4515 11.4716 33.5058C11.4918 33.5601 11.5009 33.6179 11.4981 33.6758C11.5038 33.7349 11.4975 33.7946 11.4795 33.8512C11.4615 33.9078 11.4322 33.9602 11.3934 34.0052C11.3546 34.0501 11.3071 34.0867 11.2537 34.1127C11.2004 34.1388 11.1423 34.1538 11.083 34.1568L10.6217 34.1562Z" fill="white"/>
<path fill-rule="evenodd" clip-rule="evenodd" d="M15.3269 35.9555C15.2526 36.0396 15.1603 36.1059 15.0569 36.1494C14.9534 36.1929 14.8415 36.2125 14.7294 36.2068C14.6174 36.2011 14.508 36.1701 14.4095 36.1163C14.311 36.0625 14.2259 35.9873 14.1605 35.8961C13.8376 35.5403 13.8774 34.5057 14.0484 34.0972C14.0895 33.9716 14.1642 33.8596 14.2645 33.7734C14.3647 33.6873 14.4867 33.6303 14.6171 33.6086C14.7475 33.5869 14.8814 33.6012 15.0042 33.6502C15.1269 33.6992 15.234 33.7809 15.3136 33.8864C15.4916 33.5898 15.709 33.6423 15.9793 33.6423L15.9726 36.4035C15.9859 36.97 15.6035 37.2935 14.9578 37.2598C14.607 37.2208 14.2657 37.1206 13.9495 36.9637C14.0153 36.7987 14.0814 36.6273 14.1402 36.455C14.3218 36.5401 14.5089 36.6129 14.7003 36.6728C14.9969 36.7453 15.3132 36.7452 15.3262 36.3301L15.3269 35.9555ZM14.9578 34.1697C15.1753 34.1697 15.3533 34.512 15.3533 34.9275C15.3533 35.3493 15.1753 35.6854 14.9578 35.6854C14.7468 35.6854 14.5691 35.3493 14.5691 34.9275C14.5694 34.5123 14.7471 34.17 14.9578 34.17V34.1697Z" fill="white"/>
<path fill-rule="evenodd" clip-rule="evenodd" d="M20.0183 36.1791L19.3593 36.1725L19.366 33.2534L18.5356 33.2664L18.5423 32.6865H20.4862C20.8677 32.6932 20.8677 32.9702 20.8677 33.247H20.0244L20.0183 36.1791Z" fill="white"/>
<path fill-rule="evenodd" clip-rule="evenodd" d="M21.3705 35.0851C21.7923 35.0784 22.2666 35.0918 22.6951 35.0851C22.7305 34.7205 22.6716 34.3527 22.5239 34.0175C22.4281 33.8889 22.3027 33.7853 22.1584 33.7153C22.0141 33.6453 21.855 33.6111 21.6947 33.6156C21.5344 33.6202 21.3775 33.6632 21.2374 33.7412C21.0972 33.8192 20.9779 33.9298 20.8895 34.0636C20.6744 34.5659 20.6579 35.1312 20.8434 35.6451C20.9186 35.807 21.0361 35.9455 21.1834 36.0462C21.3307 36.1469 21.5024 36.2061 21.6805 36.2174C22.0373 36.2393 22.3932 36.1617 22.7085 35.9933C22.6293 35.8026 22.5699 35.6436 22.4911 35.4595C21.9965 35.7504 21.3772 35.8163 21.3705 35.0851ZM21.3772 34.6896H22.0625C22.0692 34.4525 22.0626 34.1358 21.7329 34.1294C21.3969 34.1294 21.3638 34.4588 21.3772 34.689V34.6896Z" fill="white"/>
<path fill-rule="evenodd" clip-rule="evenodd" d="M16.599 32.9167C16.593 32.8087 16.6295 32.7026 16.7009 32.6212C16.7722 32.5398 16.8726 32.4897 16.9805 32.4815C17.0399 32.4815 17.1782 32.4748 17.2243 32.4748L17.231 33.8586C17.6001 33.5089 18.4708 33.4371 18.4962 34.2938L18.4895 36.1652L17.89 36.1719V34.3989C17.89 33.918 17.2243 34.1421 17.231 34.5309L17.2377 36.1719H16.599V32.9167Z" fill="white"/>
<path fill-rule="evenodd" clip-rule="evenodd" d="M12.8425 33.8995C12.8579 33.8109 12.9052 33.7311 12.9756 33.6752C13.0459 33.6193 13.1343 33.5912 13.224 33.5962H13.4745V36.1663L12.8486 36.1727C12.8492 35.8366 12.8425 34.2355 12.8425 33.8995Z" fill="white"/>
<path fill-rule="evenodd" clip-rule="evenodd" d="M23.1694 32.904C23.1658 32.8504 23.1728 32.7964 23.1901 32.7455C23.2073 32.6946 23.2344 32.6476 23.2699 32.6072C23.3053 32.5668 23.3483 32.5338 23.3965 32.5101C23.4447 32.4863 23.4972 32.4722 23.5508 32.4688H23.795L23.8017 36.1655L23.1691 36.1722L23.1694 32.904Z" fill="white"/>
<defs>
<linearGradient id="paint0_linear_1_317" x1="26.5034" y1="30.6226" x2="36.4667" y2="30.6226" gradientUnits="userSpaceOnUse">
<stop stop-color="white"/>
<stop offset="0.478" stop-color="#FFA5E3"/>
<stop offset="1" stop-color="#BD509E"/>
</linearGradient>
</defs>
</svg>
