<svg width="48" height="48" viewBox="0 0 48 48" fill="none" xmlns="http://www.w3.org/2000/svg">
<rect width="48" height="48" rx="14" fill="#9C0E74" fill-opacity="0.1"/>
<mask id="mask0_1_667" style="mask-type:alpha" maskUnits="userSpaceOnUse" x="8" y="8" width="32" height="32">
<rect x="8" y="8" width="32" height="32" fill="#D9D9D9"/>
</mask>
<g mask="url(#mask0_1_667)">
<path fill-rule="evenodd" clip-rule="evenodd" d="M24.3116 12.4954C26.6335 12.5079 28.8996 13.2079 30.824 14.507C32.7485 15.8062 34.245 17.6465 35.1247 19.7953C36.0043 21.9442 36.2276 24.3052 35.7665 26.5809C35.3055 28.8566 34.1807 30.9447 32.5341 32.5818C30.8874 34.2188 28.793 35.3315 26.5146 35.7793C24.2363 36.227 21.8763 35.9897 19.7326 35.0975C17.5889 34.2054 15.7576 32.6983 14.4697 30.7663C13.1818 28.8343 12.495 26.564 12.4961 24.2421C12.5076 21.1183 13.7585 18.1267 15.9738 15.9243C18.1891 13.7219 21.1878 12.4888 24.3116 12.4954ZM23.2565 15.1385C25.0416 15.1304 26.789 15.6525 28.2771 16.6385C29.7653 17.6245 30.9273 19.0299 31.6158 20.677C32.3043 22.324 32.4883 24.1384 32.1446 25.8902C31.8008 27.6419 30.9447 29.2522 29.6848 30.5169C28.4249 31.7817 26.818 32.644 25.0676 32.9945C23.3172 33.345 21.5022 33.168 19.8525 32.4859C18.2028 31.8038 16.7927 30.6474 15.8009 29.163C14.8092 27.6787 14.2803 25.9333 14.2815 24.1481C14.2786 22.9671 14.5085 21.797 14.9581 20.7048C15.4076 19.6127 16.0681 18.6197 16.9016 17.7829C17.7352 16.9462 18.7255 16.2819 19.8159 15.8281C20.9063 15.3744 22.0754 15.1401 23.2565 15.1385Z" fill="#9C0E74"/>
<path fill-rule="evenodd" clip-rule="evenodd" d="M23.3027 15.3826C25.0364 15.3827 26.7311 15.8969 28.1726 16.8602C29.614 17.8235 30.7376 19.1926 31.4009 20.7943C32.0643 22.3961 32.2377 24.1585 31.8994 25.8589C31.5611 27.5593 30.7265 29.1211 29.5005 30.3469C28.2746 31.5728 26.7126 32.4076 25.0122 32.7458C23.3118 33.084 21.5493 32.9103 19.9476 32.2468C18.3459 31.5833 16.977 30.46 16.0138 29.0184C15.0506 27.5769 14.5364 25.882 14.5364 24.1483C14.5393 21.8242 15.4637 19.5963 17.1071 17.953C18.7505 16.3097 20.9787 15.3852 23.3027 15.3826ZM24.2303 17.8522C27.8594 17.8522 30.8044 20.6355 30.8044 24.0677C30.8044 27.5 27.8594 30.2713 24.2303 30.2713C20.6011 30.2713 17.6556 27.5 17.6556 24.0677C17.6556 20.6355 20.6006 17.8522 24.2303 17.8522Z" fill="url(#paint0_linear_1_667)"/>
</g>
<defs>
<linearGradient id="paint0_linear_1_667" x1="14.5364" y1="24.1484" x2="32.0679" y2="24.1484" gradientUnits="userSpaceOnUse">
<stop stop-color="#9B367C"/>
<stop offset="0.478" stop-color="#B06398"/>
<stop offset="1" stop-color="#CAAFC4"/>
</linearGradient>
</defs>
</svg>
