<svg width="48" height="48" viewBox="0 0 48 48" fill="none" xmlns="http://www.w3.org/2000/svg">
<path d="M40.4794 10.2005L33.606 3.45375C32.6567 2.522 31.3797 2 30.0496 2L12.7692 2C9.03069 2 6 5.03069 6 8.76923L6 39.2308C6 42.9693 9.03069 46 12.7692 46H35.2308C38.9693 46 42 42.9693 42 39.2308V13.8237C42 12.4608 41.4521 11.1552 40.4794 10.2005Z" fill="#E0E0E0"/>
<path d="M25.9571 26.1973C25.9571 26.4775 25.7317 26.7032 25.452 26.7046C25.1722 26.7059 24.9468 26.4788 24.9455 26.1986C24.9441 25.9185 25.1709 25.6927 25.4506 25.6913H25.452C25.7304 25.6927 25.9571 25.9185 25.9571 26.1973Z" fill="white"/>
<path d="M34.7396 34.7735C34.7396 35.6099 34.062 36.2872 33.2282 36.2872C32.393 36.2872 31.7168 35.6086 31.7168 34.7735C31.7168 33.9384 32.393 33.2598 33.2282 33.2598C34.062 33.2598 34.7382 33.9371 34.7396 34.7735Z" fill="white"/>
<path d="M33.2273 26.0469L27.6855 36.1385H30.1801L33.2273 30.5881L36.2758 36.1385H38.769L33.2273 26.0469Z" fill="white"/>
<path d="M26.5378 28.0716V28.9013C26.5378 28.9652 26.4889 29.0359 26.4509 29.0686C26.3884 29.0999 26.3694 29.1162 26.2893 29.1162C26.2092 29.1162 26.1263 29.1012 26.0449 29.0278C25.9634 28.9543 25.9416 28.8822 25.9416 28.7979V28.0716H25.04V28.9013C25.04 29.0441 24.93 29.1162 24.7697 29.1162C24.6869 29.1026 24.6068 29.074 24.5335 29.0318C24.4601 28.9611 24.4221 28.8822 24.4221 28.7979V28.0716H23.4906V28.7476C23.4906 28.8537 23.4702 28.9244 23.4281 28.9611C23.4281 28.9611 23.3303 29.0237 23.2421 29.0237H22.4952C22.3621 29.0155 22.282 29.0169 22.2236 28.972C22.1747 28.9135 22.1503 28.7898 22.1503 28.6007V26.0547H21.2188V28.8646C21.2188 29.1311 21.3057 29.3787 21.4835 29.6126C21.5868 29.7309 21.728 29.8152 21.9086 29.8656C22.0294 29.8968 22.153 29.9159 22.2766 29.9254C22.2766 29.9254 23.1511 29.9268 23.2828 29.9268C23.4023 29.9254 23.5218 29.9104 23.6386 29.8832C23.7934 29.8275 23.9346 29.7404 24.0568 29.6289C24.1994 29.7731 24.3352 29.8764 24.4629 29.939L24.562 29.9866L24.6801 30.0233C24.7439 30.0397 24.8078 30.0478 24.873 30.0465C25.1391 30.0465 25.3876 29.9308 25.6198 29.6983C25.8615 29.9308 26.1372 30.0465 26.4454 30.0465C26.7347 30.0465 26.9778 29.9404 27.1747 29.7255C27.3729 29.5119 27.4707 29.2114 27.4707 28.8224V28.0689L26.5378 28.0716Z" fill="white"/>
<path d="M19.7812 28.7261C19.7812 28.741 19.7812 28.7628 19.7785 28.7873C19.7758 28.8172 19.7704 28.8457 19.7609 28.8743L19.7296 28.9518C19.6699 28.9994 19.5911 29.0225 19.4974 29.0225H14.7365C14.5179 29.0225 14.3889 29.0334 14.306 28.9749C14.2436 28.911 14.211 28.843 14.211 28.7655V26.0549H13.2794V29.8223C13.2794 30.0303 13.1993 30.2031 13.0377 30.3391C12.8761 30.4737 12.6928 30.5417 12.4878 30.5417H11.7232C11.6133 30.5431 11.5033 30.5254 11.4001 30.4873C11.2928 30.437 11.21 30.3826 11.1516 30.3255C11.0049 30.1813 10.9316 30.014 10.9316 29.8236V28.333H10V29.7475C10 30.1976 10.1562 30.5988 10.4726 30.9497C10.789 31.3006 11.1638 31.4761 11.6078 31.4761H12.5312C12.9522 31.4761 13.3378 31.3265 13.6882 31.0273C14.0372 30.7281 14.2123 30.3404 14.2137 29.8631C14.2897 29.9678 14.4228 29.9596 14.4228 29.9596H19.6957C19.9781 29.9596 20.2171 29.8413 20.4167 29.6074C20.615 29.3734 20.7141 29.1082 20.7141 28.8117V28.0787H19.7812V28.7261Z" fill="white"/>
<path d="M19.5538 27.2074C19.5538 27.4821 19.3311 27.7038 19.0581 27.7038C18.7852 27.7038 18.5625 27.4807 18.5625 27.2074C18.5625 26.934 18.7838 26.7123 19.0581 26.7109C19.3311 26.7109 19.5538 26.9326 19.5538 27.2074Z" fill="white"/>
<path d="M20.6651 27.2074C20.6651 27.4821 20.4438 27.7038 20.1695 27.7038C19.8952 27.7038 19.6738 27.4821 19.6738 27.2074C19.6738 26.934 19.8952 26.7123 20.1681 26.7109C20.4424 26.7109 20.6651 26.9326 20.6651 27.2074Z" fill="white"/>
<path d="M25.3769 27.2169C25.3769 27.497 25.1515 27.7228 24.8718 27.7242C24.592 27.7255 24.3666 27.4984 24.3652 27.2182C24.3639 26.9381 24.5907 26.7123 24.8704 26.7109H24.8718C25.1501 26.7109 25.3769 26.9367 25.3769 27.2169Z" fill="white"/>
<path d="M26.5292 27.2169C26.5292 27.497 26.3038 27.7228 26.0241 27.7242C25.7444 27.7255 25.5189 27.4984 25.5176 27.2182C25.5162 26.9381 25.743 26.7123 26.0227 26.7109H26.0241C26.3038 26.7109 26.5292 26.9367 26.5292 27.2169Z" fill="white"/>
<path d="M15.7922 35.7591H15.3237V36.1766C15.3237 36.2337 15.3698 36.28 15.4269 36.28H15.8954V35.8624C15.8954 35.8053 15.8492 35.7591 15.7922 35.7591ZM15.0928 35.7591H14.623V36.1766C14.623 36.2337 14.6692 36.28 14.7262 36.28H15.1947V35.8624C15.1947 35.8053 15.1485 35.7591 15.0928 35.7591ZM15.875 32.1848V33.6523C15.8519 34.0508 15.598 34.316 15.2585 34.316H14.7724C14.4329 34.316 14.1043 34.0835 14.1043 33.534V31.3606C14.0364 31.4422 13.9617 31.5184 13.8802 31.5878C13.7688 31.6843 13.648 31.7687 13.519 31.8421V34.9104C13.5176 35.4517 13.0804 35.8896 12.5399 35.891H11.6763C11.1372 35.891 10.6972 35.5102 10.6972 35.0464V33.4116C10.6972 32.9859 10.2966 32.9968 10.1133 32.9968V35.0954C10.1133 35.7971 10.8832 36.3711 11.8243 36.3711H12.3919C13.3329 36.3711 14.1029 35.7971 14.1029 35.0954V34.6234C14.293 34.7513 14.5171 34.8193 14.7466 34.8179H15.249C15.7881 34.8179 16.4562 34.3636 16.4562 33.8754V31.6952C16.2729 31.6952 15.875 31.7374 15.875 32.1848ZM19.4912 32.1196V33.6578C19.4912 34.0522 19.1843 34.3215 18.8462 34.3215H18.2351C17.8793 34.3215 17.5588 34.074 17.5588 33.6455V31.275C17.5588 30.8574 17.1596 30.8574 16.9749 30.8574V33.772C16.9749 34.3405 17.5846 34.8179 18.2622 34.8179H18.8584C19.5211 34.8179 20.0697 34.2807 20.0697 33.8332V31.6979C19.885 31.6979 19.4912 31.6898 19.4912 32.1196ZM26.3257 30.939H25.5802C25.0112 30.939 24.4028 31.3226 24.4028 31.8924V33.1423H24.4015V33.6292C24.4015 33.9094 24.2412 34.1161 23.9031 34.1161H23.8108V31.9128C23.8108 31.343 23.2038 30.939 22.6334 30.939H21.8879C21.3176 30.939 20.7106 31.343 20.7106 31.9128V33.8441C20.7106 34.414 21.319 34.8179 21.8879 34.8179H22.6334C22.8358 34.8179 23.0435 34.7594 23.2269 34.6588L23.2364 34.6533V35.2001C23.2364 35.5088 22.9023 35.7876 22.3591 35.7876H21.3515C20.989 35.7876 20.8966 36.1181 20.8966 36.2786H22.5411C23.034 36.2786 23.8203 35.9304 23.8203 35.041V34.5677H23.9452C24.1801 34.5677 24.3784 34.4588 24.5155 34.2698C24.7179 34.6139 25.2217 34.8179 25.6399 34.8179H26.2523C26.8227 34.8179 27.5003 34.467 27.5003 33.7856V31.8938C27.503 31.3239 26.896 30.9404 26.3257 30.939ZM23.2296 33.7027C23.2296 34.1338 22.9675 34.4031 22.6117 34.4031H21.9124C21.5566 34.4031 21.2945 34.1773 21.2945 33.7475V32.0121C21.2945 31.5823 21.5566 31.362 21.9124 31.362H22.6117C22.9675 31.362 23.2296 31.5823 23.2296 32.0121V33.7027ZM26.9204 33.6755C26.9204 34.1542 26.6584 34.3963 26.3026 34.3963H25.6032C25.2475 34.3963 24.9854 34.2059 24.9854 33.7203V32.0121C24.9854 31.5823 25.2475 31.3566 25.6032 31.3566H26.3026C26.6584 31.3566 26.9204 31.5823 26.9204 32.0121V33.6755ZM18.7497 35.7591H18.2799V36.1766C18.2799 36.2337 18.3261 36.28 18.3831 36.28H18.8516V35.8624C18.8516 35.8053 18.8054 35.7591 18.7497 35.7591Z" fill="white"/>
</svg>
