<svg width="24" height="24" viewBox="0 0 24 24" fill="none" xmlns="http://www.w3.org/2000/svg">
<path fill-rule="evenodd" clip-rule="evenodd" d="M12 4C8.13401 4 5 7.13401 5 11H8C9.10457 11 10 11.8954 10 13V17C10 18.1046 9.10457 19 8 19H5C3.89543 19 3 18.1046 3 17V12V11C3 6.02944 7.02944 2 12 2C16.9706 2 21 6.02944 21 11V12V17C21 17.4301 20.9455 17.8489 20.8424 18.2493C20.2874 20.4056 18.3312 22 16 22H13C12.4477 22 12 21.5523 12 21C12 20.4477 12.4477 20 13 20H16C16.8879 20 17.6867 19.6139 18.2363 19H16C14.8954 19 14 18.1046 14 17V13C14 11.8954 14.8954 11 16 11H19C19 7.13401 15.866 4 12 4ZM19 13H16V17H19V13ZM5 13V17H8V13H5Z" fill="#27303D"/>
</svg>
